<svg width="44" height="42" viewBox="0 0 44 42" fill="none" xmlns="http://www.w3.org/2000/svg">
<ellipse cx="22" cy="21" rx="22" ry="21" fill="#907B8F"/>
<path d="M12.7789 22.6L12.0211 21.0842H17.3263L16.72 19.5684H11.7684L11.0105 18.0526H18.8926L18.2863 16.5368H10.8691L10 15.0211H13.7895C13.7895 14.485 14.0024 13.971 14.3814 13.592C14.7604 13.2129 15.2745 13 15.8105 13H27.9368V17.0421H30.9684L34 21.0842V26.1368H31.9789C31.9789 26.9409 31.6595 27.712 31.091 28.2805C30.5225 28.849 29.7514 29.1684 28.9474 29.1684C28.1433 29.1684 27.3722 28.849 26.8037 28.2805C26.2352 27.712 25.9158 26.9409 25.9158 26.1368H21.8737C21.8737 26.9409 21.5543 27.712 20.9858 28.2805C20.4172 28.849 19.6461 29.1684 18.8421 29.1684C18.0381 29.1684 17.267 28.849 16.6985 28.2805C16.1299 27.712 15.8105 26.9409 15.8105 26.1368H13.7895V22.6H12.7789ZM28.9474 27.6526C29.3494 27.6526 29.7349 27.4929 30.0192 27.2087C30.3035 26.9244 30.4632 26.5389 30.4632 26.1368C30.4632 25.7348 30.3035 25.3493 30.0192 25.065C29.7349 24.7808 29.3494 24.6211 28.9474 24.6211C28.5454 24.6211 28.1598 24.7808 27.8755 25.065C27.5913 25.3493 27.4316 25.7348 27.4316 26.1368C27.4316 26.5389 27.5913 26.9244 27.8755 27.2087C28.1598 27.4929 28.5454 27.6526 28.9474 27.6526ZM30.4632 18.5579H27.9368V21.0842H32.4438L30.4632 18.5579ZM18.8421 27.6526C19.2441 27.6526 19.6297 27.4929 19.9139 27.2087C20.1982 26.9244 20.3579 26.5389 20.3579 26.1368C20.3579 25.7348 20.1982 25.3493 19.9139 25.065C19.6297 24.7808 19.2441 24.6211 18.8421 24.6211C18.4401 24.6211 18.0545 24.7808 17.7703 25.065C17.486 25.3493 17.3263 25.7348 17.3263 26.1368C17.3263 26.5389 17.486 26.9244 17.7703 27.2087C18.0545 27.4929 18.4401 27.6526 18.8421 27.6526Z" fill="#230F40"/>
</svg>
