<svg width="44" height="42" viewBox="0 0 44 42" fill="none" xmlns="http://www.w3.org/2000/svg">
<ellipse cx="22" cy="21" rx="22" ry="21" fill="#907B8F"/>
<path d="M31.388 11.405C31.33 11.2605 31.2185 11.1439 31.0768 11.0795C30.935 11.0152 30.7739 11.0079 30.6269 11.0593C30.4799 11.1107 30.3584 11.2168 30.2877 11.3555C30.2169 11.4942 30.2024 11.6548 30.247 11.804C31.176 14.474 29.332 16.468 27.926 17.536L27.358 16.722C27.167 16.449 26.74 16.222 26.408 16.218L23.22 16.232C22.8306 16.2436 22.4515 16.3604 22.123 16.57L12.729 23.157C12.5105 23.3107 12.3619 23.5448 12.3156 23.8079C12.2693 24.0711 12.3291 24.3419 12.482 24.561L16.751 30.669C17.071 31.124 17.582 31.069 18.038 30.751L27.432 24.163C27.702 23.972 28.014 23.56 28.124 23.245L29.122 20.1C29.232 19.786 29.165 19.307 28.974 19.034L28.628 18.538C30.516 17.091 32.476 14.534 31.388 11.405ZM27.017 20.763C26.6674 21.0071 26.2351 21.1025 25.8151 21.0283C25.3952 20.954 25.0218 20.7162 24.777 20.367C24.532 20.0166 24.4359 19.5833 24.51 19.1623C24.584 18.7412 24.8221 18.3667 25.172 18.121C25.4465 17.9292 25.774 17.8278 26.1088 17.8308C26.4436 17.8339 26.7691 17.9412 27.04 18.138C26.768 18.302 26.581 18.398 26.546 18.413C26.4221 18.4721 26.3219 18.5715 26.2618 18.695C26.2018 18.8185 26.1855 18.9588 26.2156 19.0928C26.2457 19.2268 26.3204 19.3466 26.4275 19.4325C26.5346 19.5185 26.6677 19.5656 26.805 19.566C26.8917 19.566 26.9774 19.5463 27.062 19.507C27.2567 19.4156 27.463 19.3056 27.681 19.177C27.7304 19.477 27.6942 19.7849 27.5768 20.0653C27.4594 20.3458 27.2654 20.5876 27.017 20.763Z" fill="#230F40"/>
</svg>
