<svg width="44" height="42" viewBox="0 0 44 42" fill="none" xmlns="http://www.w3.org/2000/svg">
<ellipse cx="22" cy="21" rx="22" ry="21" fill="#907B8F"/>
<path d="M10 11.8398C11.402 14.5498 11.445 17.0808 12.977 22.2398C14.832 27.5808 21.68 27.9408 22.187 27.9508C22.647 28.6768 23.7 29.6548 26.113 30.1608L26.381 28.8888C24.299 28.4528 23.537 27.6498 23.275 27.2088L23.27 27.2148C23.357 26.7308 24.793 21.8378 21.947 17.8628C17.182 12.5828 10 11.8398 10 11.8398ZM34 12.6798C30.102 13.2908 29.707 11.7598 22.527 15.7728C23.6971 17.1398 24.5413 18.7548 24.9961 20.4958C25.4508 22.2367 25.5041 24.0583 25.152 25.8228C28.875 24.3368 30.318 21.8468 30.758 19.3568C30.758 19.3568 32.028 14.6408 34 12.6798ZM22.527 15.7728L22.525 15.7708V15.7748L22.527 15.7728ZM12.643 14.2198C12.643 14.2198 18.065 15.6458 21.186 25.7628C18.241 24.8738 16.983 21.9668 16.556 20.5948H16.562C15.7826 18.1876 14.4395 16.0017 12.643 14.2198Z" fill="#230F40"/>
</svg>
