<svg width="58" height="58" viewBox="0 0 58 58" fill="none" xmlns="http://www.w3.org/2000/svg">
<rect width="58" height="58" rx="6" fill="#8763A1" fill-opacity="0.59"/>
<ellipse cx="29" cy="29" rx="22" ry="21" fill="#5A4644" fill-opacity="0.43"/>
<path d="M17 19.8398C18.402 22.5498 18.445 25.0808 19.977 30.2398C21.832 35.5808 28.68 35.9408 29.187 35.9508C29.647 36.6768 30.7 37.6548 33.113 38.1608L33.381 36.8888C31.299 36.4528 30.537 35.6498 30.275 35.2088L30.27 35.2148C30.357 34.7308 31.793 29.8378 28.947 25.8628C24.182 20.5828 17 19.8398 17 19.8398ZM41 20.6798C37.102 21.2908 36.707 19.7598 29.527 23.7728C30.6971 25.1398 31.5413 26.7548 31.9961 28.4958C32.4508 30.2367 32.5041 32.0583 32.152 33.8228C35.875 32.3368 37.318 29.8468 37.758 27.3568C37.758 27.3568 39.028 22.6408 41 20.6798ZM29.527 23.7728L29.525 23.7708V23.7748L29.527 23.7728ZM19.643 22.2198C19.643 22.2198 25.065 23.6458 28.186 33.7628C25.241 32.8738 23.983 29.9668 23.556 28.5948H23.562C22.7826 26.1876 21.4395 24.0017 19.643 22.2198Z" fill="#230F40"/>
</svg>
