<svg width="24" height="24" viewBox="0 0 24 24" fill="none" xmlns="http://www.w3.org/2000/svg">
<path d="M8.0007 12.0003C8.00024 11.7666 8.08162 11.5402 8.2307 11.3603L13.2307 5.36028C13.4004 5.15606 13.6444 5.02763 13.9088 5.00325C14.1732 4.97888 14.4365 5.06054 14.6407 5.23028C14.8449 5.40001 14.9733 5.64393 14.9977 5.90835C15.0221 6.17278 14.9404 6.43606 14.7707 6.64028L10.2907 12.0003L14.6107 17.3603C14.6938 17.4626 14.7558 17.5803 14.7932 17.7066C14.8307 17.8329 14.8428 17.9654 14.8288 18.0965C14.8149 18.2275 14.7752 18.3545 14.712 18.4701C14.6488 18.5857 14.5634 18.6878 14.4607 18.7703C14.3579 18.8619 14.2373 18.9312 14.1064 18.974C13.9755 19.0168 13.8372 19.0321 13.7001 19.019C13.5631 19.0058 13.4302 18.9645 13.3098 18.8976C13.1895 18.8307 13.0842 18.7397 13.0007 18.6303L8.1707 12.6303C8.04519 12.4452 7.98533 12.2234 8.0007 12.0003Z" fill="#130944"/>
</svg>
