<svg width="147" height="192" viewBox="0 0 147 192" fill="none" xmlns="http://www.w3.org/2000/svg">
<path d="M73.4695 136C72.0485 134.374 70.652 132.77 69.2616 131.149C59.7826 120.143 50.8453 108.748 42.477 96.9962C36.8128 89.1199 31.7021 80.9146 27.1767 72.4312C24.4817 67.4446 22.3257 62.2256 20.7332 56.8536C19.6304 52.8433 19.3007 48.6845 19.7593 44.5682C20.6601 35.1059 24.6072 26.1108 31.0906 18.7452C38.5628 10.0522 48.9859 3.94487 60.6743 1.41089C65.4106 0.333142 70.2858 -0.130292 75.16 0.0338899C87.1344 0.430557 97.9143 3.96089 107.322 10.8516C115.979 17.081 122.29 25.6798 125.354 35.4222C126.886 40.1312 127.584 45.0329 127.418 49.9402C127.193 53.5292 126.418 57.0704 125.115 60.4576C122.757 67.1386 119.487 73.4342 115.824 79.5769C113.974 82.6992 112.002 85.7422 110.079 88.8022C110.011 88.91 109.939 89.0159 109.864 89.1196C109.405 90.129 108.635 90.9914 107.651 91.5998C106.667 92.2082 105.511 92.5359 104.327 92.5422C102.895 92.5385 101.51 92.0633 100.422 91.2016C99.333 90.3398 98.6114 89.1478 98.386 87.8389C98.3199 87.4604 98.2871 87.0776 98.288 86.6942V59.3129C98.3176 59.008 98.2561 58.7014 98.1103 58.4266C97.9645 58.1518 97.7399 57.9194 97.4611 57.7546C94.2393 55.5446 91.0666 53.2666 87.8816 51.0169L73.984 41.1909C73.8712 41.0813 73.7169 41.0165 73.5535 41.0102C73.3901 41.0038 73.2304 41.0564 73.1081 41.1569L73.0714 41.1909L49.6432 57.7376C48.4005 58.6618 46.8118 59.0915 45.2267 58.9321C43.6415 58.7727 42.1898 58.0373 41.1907 56.8876C40.1917 55.7378 39.7272 54.2681 39.8995 52.8015C40.0718 51.335 40.8668 49.9918 42.1095 49.0676L42.2626 48.9656C43.3896 48.1496 44.5166 47.3336 45.7048 46.5402C45.8582 46.4479 45.9822 46.3194 46.064 46.168C46.1458 46.0166 46.1825 45.8478 46.1703 45.6789V32.5096C45.9433 31.687 45.9217 30.8274 46.1075 29.996C46.2932 29.1647 46.6812 28.3834 47.2421 27.7115C47.803 27.0396 48.522 26.4948 49.3446 26.1185C50.1671 25.7421 51.0715 25.5441 51.9891 25.5396C55.2598 25.5396 57.9671 28.0159 57.9977 31.0419C58.1325 31.5292 58.206 32.0279 58.2121 32.5322L58.206 37.7172L66.0092 32.2092C67.3016 31.2912 68.5878 30.3676 69.8863 29.4552C70.9106 28.727 72.1644 28.3289 73.4561 28.3218C74.7479 28.3146 76.0067 28.6987 77.0404 29.4156C86.9567 36.3686 96.8792 43.3386 106.796 50.3142C107.671 50.9036 108.48 51.5722 109.209 52.3089C109.988 53.2075 110.388 54.337 110.336 55.4879V64.8209C111.297 62.8376 112.192 60.8316 113.012 58.7859C113.772 57.0349 114.397 55.2386 114.874 53.4026C115.548 50.6486 115.444 47.8322 115.168 45.0329C115.091 43.7424 114.915 42.4585 114.642 41.1909C114.201 39.4878 113.636 37.8142 112.951 36.1816C111.574 32.7161 109.664 29.4525 107.279 26.4916C101.436 19.4819 93.7555 14.9032 84.6537 12.3589C82.7689 11.8545 80.83 11.5429 78.8717 11.4296C76.1155 11.2709 73.3592 11.2142 70.603 11.2539C65.2559 11.2539 60.3068 12.7216 55.4803 14.7672C49.0503 17.5428 43.4727 21.7621 39.2552 27.0412C36.8481 29.9709 35.2372 33.3199 33.7366 36.7482C32.5211 39.7274 31.8404 42.8704 31.7215 46.0529C31.55 48.6142 31.4948 51.1756 32.1441 53.6689C32.6892 55.6069 33.3752 57.5109 34.1898 59.3639C37.4851 67.2519 41.8093 74.6696 46.4888 81.9172C54.6384 94.4079 63.593 106.433 73.3041 117.929C74.4495 117.028 75.3989 115.934 76.2931 114.801C79.6741 110.545 83.0367 106.29 86.3871 102.017C87.4529 100.651 88.6411 99.4726 90.5215 99.0306C91.3284 98.8489 92.1674 98.8248 92.9849 98.9598C93.8024 99.0948 94.5806 99.3859 95.2698 99.8145C95.959 100.243 96.5441 100.8 96.9879 101.449C97.4316 102.099 97.7242 102.827 97.847 103.587C97.9533 104.343 97.8936 105.111 97.6716 105.845C97.4495 106.579 97.0696 107.264 96.5546 107.859C91.7894 113.855 87.0609 119.873 82.2282 125.811C79.5271 129.132 76.6667 132.339 73.8737 135.586L73.4695 136ZM73.6349 57.8679H78.5961C80.2481 57.8857 81.8266 58.5022 82.9925 59.5851C84.1584 60.668 84.8186 62.1308 84.8314 63.6592V72.8449C84.8314 76.0182 82.0077 78.6306 78.5777 78.6306H68.7349C67.0773 78.6474 65.4791 78.06 64.2859 76.9954C63.0928 75.9307 62.4005 74.4744 62.3587 72.9412V63.7952C62.3274 62.2622 62.9512 60.7797 64.0946 59.6698C65.2381 58.56 66.8088 57.9124 68.4654 57.8679H73.6349ZM78.9575 68.2776V63.8689C78.9575 63.4496 78.7982 63.2796 78.3389 63.2796H68.9063C68.4041 63.2796 68.2632 63.4609 68.2632 63.9029V72.5446C68.2632 72.9979 68.4286 73.1622 68.9186 73.1622H78.2776C78.8043 73.1622 78.9697 72.9752 78.9636 72.4992C78.9085 71.1279 78.9636 69.7112 78.9636 68.3059L78.9575 68.2776Z" fill="#A16363" fill-opacity="0.79"/>
<path d="M64.4655 137.966C63.5457 141.198 60.9477 142.37 58.9147 145.05C56.3289 148.492 53.7467 153.031 51.4496 157.598C50.7627 158.955 49.9659 160.187 49.6185 160.818C49.4449 161.11 49.4462 161.261 49.6218 160.734C49.8241 160.269 49.8744 158.645 49.44 157.75C49.7126 158.353 49.9504 158.643 50.2112 158.902C51.0035 160.247 57.0334 160.842 63.7058 161.498C64.0592 161.544 64.253 161.724 64.4144 161.747C65.7303 161.93 68.0199 162.227 69.8189 162.81C70.0093 162.87 70.1877 162.928 70.3504 162.983C73.0031 163.879 77.7011 165.455 80.1304 166.537C81.1602 166.988 82.2304 167.435 82.5028 167.937C82.8783 168.107 83.2113 167.886 83.3182 167.91C83.3192 167.91 83.3202 167.911 83.3212 167.912C83.6651 167.99 84.3915 168.54 84.5764 168.602C84.6041 168.611 84.5309 168.321 84.9389 168.571C84.9753 168.593 84.8762 168.727 85.2419 168.885C85.3368 168.924 86.6607 169.225 87.0175 169.37C88.2062 169.833 90.8881 171.327 92.2493 172.045C92.4579 172.154 92.6224 172.133 92.8435 172.248C92.9576 172.307 93.0793 172.488 93.1144 172.506C93.2688 172.584 94.1592 172.534 93.4788 173.216C94.1976 173.542 94.1421 173.165 94.2534 172.999C94.6069 173.179 94.8285 173.402 95.0058 173.56C94.9203 173.58 94.8859 173.578 94.9552 173.337C94.2465 173.143 94.7488 173.445 95.9555 173.017C97.1353 172.643 98.6427 171.901 100.384 171C100.35 170.933 100.315 170.866 100.281 170.799C101.023 170.618 101.387 170.279 101.776 170.066C101.773 170.058 101.775 170.093 101.852 170.236C101.781 170.167 101.674 170.127 101.565 170.101C101.431 171.054 102.43 167.356 102.356 163.6C102.51 159.743 102.472 155.064 104.532 149.922C105.431 147.707 106.172 145.437 106.776 143.129C106.873 142.756 107.054 142.702 107.204 142.082C107.37 141.396 107.399 140.39 107.57 139.479C107.723 138.68 108.062 137.518 108.202 136.612C108.233 136.408 108.151 136.248 108.154 136.225C108.175 136.089 108.335 136.101 108.355 135.972C108.379 135.812 108.282 135.611 108.31 135.427C108.411 134.747 108.433 133.995 108.443 133.904C108.452 133.828 108.465 133.764 108.479 133.709C108.49 134.272 108.638 134.413 108.639 134.471C108.804 135.433 108.633 135.087 108.69 135.314C109.101 136.387 109.718 136.344 109.464 136.597C109.552 136.499 109.64 136.402 109.73 136.306C109.711 136.192 109.531 136.498 109.477 136.535C109.528 136.589 109.028 136.195 108.917 136.133C108.718 135.993 108.786 135.833 108.769 135.821C108.737 135.799 108.389 135.717 108.05 135.56L109.775 136.113C109.585 136.084 109.405 136.041 109.27 135.973C108.747 135.708 109.451 135.46 109.325 135.372C109.305 135.357 108.713 135.303 108.65 135.183C108.58 135.051 109.09 135.13 109.09 135.08C109.089 135.043 108.277 134.676 108.463 134.536C108.617 134.387 109.739 134.774 109.998 134.742C110.001 134.742 110.004 134.74 110.007 134.737L108.662 134.305C108.674 134.297 108.684 134.271 108.694 134.24L110.019 134.665C110.02 134.601 110.013 134.52 110.035 134.52C110.037 134.52 110.04 134.52 110.043 134.52L108.759 134.108C109.041 134.173 110.731 135.182 110.578 135.185C110.473 135.219 110.363 135.253 110.25 135.286C110.322 135.35 110.38 135.408 110.421 135.455C110.306 135.456 110.163 135.44 110.001 135.419C109.793 136.208 110.362 135.695 110.632 135.419C110.797 135.336 111.02 134.905 111.313 134.83C111.336 134.787 111.351 134.736 111.36 134.68C111.256 134.682 111.137 134.674 111.004 134.663C111.031 134.745 111.048 134.823 111.052 134.892C111.002 134.918 110.952 134.945 110.902 134.971C110.73 134.933 110.498 134.865 110.232 134.793C110.139 134.685 110.246 134.568 110.177 134.488C109.172 133.469 109.728 134.335 108.894 133.832L110.094 134.217C110.09 134.216 110.087 134.216 110.083 134.215C109.933 134.104 109.784 133.993 109.634 133.884C109.637 134.239 109.167 133.939 108.535 134.003C108.624 133.901 108.713 133.799 108.802 133.698C107.911 133.621 106.161 132.859 106.582 133.534C106.383 133.459 106.184 133.385 105.986 133.312C105.803 133.397 105.619 133.483 105.438 133.57C105.203 133.537 104.964 133.506 104.726 133.476C104.729 133.421 104.732 133.366 104.735 133.31C104.925 133.325 105.12 133.34 105.308 133.356C105.181 133.176 105.049 132.996 104.917 132.816C104.773 132.833 104.629 132.85 104.486 132.868C105.066 133.071 104.268 133.273 104.064 133.484C103.564 133.534 103.258 133.23 103.092 133.208C103.015 133.197 102.064 133.669 102.45 133.124C101.971 133.173 101.49 133.228 101.006 133.288C100.819 133.242 100.634 133.197 100.444 133.152C100.859 132.894 99.666 132.571 100.548 132.469C101.205 132.396 101.366 132.645 101.673 132.651C101.952 132.657 102.108 132.498 102.411 132.502C104.461 132.536 106.123 132.708 108.034 133.026C108.413 133.09 108.767 133.059 109.02 133.108C109.307 133.164 108.915 133.314 109.29 133.319C109.679 133.325 109.789 133.173 109.891 133.186C109.945 133.193 110.081 133.326 110.234 133.385L109.264 133.074C109.284 133.09 109.306 133.105 109.329 133.116C109.973 133.423 110.816 133.764 110.872 133.81C111.073 133.897 111.841 134.785 111.623 134.637C111.612 134.642 111.148 134.962 111.616 134.574C111.609 134.534 111.596 134.473 111.586 134.396C111.482 134.437 111.378 134.482 111.276 134.529C111.427 134.131 111.48 134.063 111.462 133.947C111.44 134.065 111.395 134.222 111.378 134.569C111.29 136.612 110.766 139.551 110.319 141.718C110.222 142.2 110.311 142.414 110.183 142.988C110.068 143.523 109.313 144.782 109.926 144.632C109.14 145.668 109.868 146.085 109.196 146.515C109.245 146.608 109.295 146.7 109.344 146.792C108.836 147.321 109.041 147.6 108.84 148.292C108.752 148.591 108.551 148.141 108.698 148.856C108.63 148.959 108.562 149.062 108.494 149.165C108.426 149.11 108.358 149.055 108.29 149C108.112 149.671 108.052 149.698 108.37 149.735C108.196 150.03 108.022 150.318 107.843 150.609C107.922 150.686 108 150.762 108.078 150.839C108.439 150.803 110.559 143.425 110.562 142.337C111.08 141.172 111.241 138.643 111.422 137.653C111.5 137.254 111.752 137.11 111.851 136.524C111.951 135.94 111.818 135.179 111.839 134.863C111.851 134.678 111.878 134.354 111.909 133.983C112.385 135.225 111.058 133.227 112.212 134.2C112.286 134.113 112.351 134.014 112.407 133.907C111.617 133.653 111.991 133.673 111.308 133.142C111.007 132.912 110.001 132.654 110.279 132.231C111.051 132.522 111.666 133.099 112.076 133.438C112.125 133.464 112.737 133.728 112.753 133.906C112.774 134.055 112.307 134.203 112.833 134.063C112.68 134.088 112.608 134.054 112.591 134.037C112.517 134.399 112.748 134.655 112.773 134.788C112.833 135.103 112.568 135.118 112.507 135.421C112.439 135.754 112.586 136.005 112.582 136.051C112.549 136.512 112.234 138.909 112.101 138.998C112.07 138.895 112.039 138.795 112.009 138.69C111.836 139.292 112.12 139.211 112.125 139.378C112.103 139.497 112.082 139.618 112.059 139.739C112.013 139.681 111.967 139.624 111.92 139.566C111.802 140.296 112.097 139.774 111.895 140.805C111.765 141.459 111.408 142.09 111.409 142.153C111.41 142.173 111.595 142 111.555 142.268C111.489 142.717 111.303 143.47 111.092 143.507C111.065 143.727 111.254 143.756 111.251 143.785C111.249 143.914 110.728 146.058 110.612 146.437C110.323 147.491 109.894 148.636 109.507 149.755C109.467 149.87 109.38 149.754 109.341 149.87C109.28 150.055 109.089 151.063 109.043 151.206C109.004 151.333 108.922 151.525 108.832 151.728C108.637 152.165 108.442 152.652 108.438 152.775C108.438 152.8 108.717 152.503 108.621 152.932C108.521 153.408 108.393 153.092 108.382 153.116C108.003 154.037 108.009 154.679 107.896 155.327C107.859 155.537 107.617 155.889 107.613 156.194C107.612 156.229 107.776 156.19 107.778 156.224C107.778 156.68 107.432 157.048 107.386 157.24C107.275 157.704 107.521 157.476 107.519 157.501C107.483 157.813 107.355 158.223 107.317 158.695C107.152 160.797 107.125 162.479 107.032 164.603C107.02 164.871 106.859 165.178 106.857 165.218C106.853 165.342 107.03 165.316 107.01 165.676C106.967 166.431 106.935 167.127 106.868 167.848C106.854 167.994 106.686 168.04 106.672 168.148C106.635 168.514 106.877 169.801 106.343 169.719C106.68 170.49 106.171 170.846 106.019 171.319C105.687 172.496 104.844 173.765 103.844 174.144C103.82 174.155 103.796 174.166 103.773 174.177C103.475 174.314 103.279 174.264 103.116 174.341C102.813 174.483 101.284 175.385 101.198 175.403C101.02 175.448 100.839 174.874 100.271 175.746C99.8161 176.014 99.7646 175.763 99.6623 175.799C98.8735 176.075 98.3683 176.875 98.3079 176.356C97.5093 176.839 97.0305 177.275 96.5655 176.921C96.6365 177.138 96.2721 177.391 95.8 177.391C96.1933 176.908 96.0381 176.733 97.1986 176.424C97.2171 176.418 97.2372 176.587 97.2558 176.582C97.4264 176.534 97.7458 176.327 98.0371 176.216C98.3298 176.105 98.2128 176.276 98.3284 176.225C98.4345 176.178 98.3683 176.034 98.5216 175.965C99.0197 175.74 99.4511 175.482 99.7404 175.336C99.9226 175.245 100.192 175.265 100.336 175.192C100.889 174.913 102.037 174.172 102.815 173.78C102.979 173.699 102.978 173.874 103.342 173.701C103.369 173.688 103.409 173.596 103.509 173.484C103.536 173.432 103.573 173.377 103.627 173.332C103.767 173.213 103.924 173.202 104.004 173.12C104.069 173.051 103.951 172.964 104.081 172.839C104.234 172.892 105.328 171.152 105.338 170.861C105.429 170.675 105.65 170.63 105.659 170.496C105.66 170.472 105.479 170.387 105.484 170.306C105.618 169.048 106.063 165.609 106.113 163.671C106.276 159.76 106.215 155.754 107.952 151.359C107.972 151.309 107.992 151.26 108.012 151.21C108.007 151.135 108.001 151.059 107.995 150.984C107.949 151.095 107.902 151.206 107.855 151.318C107.725 151.624 107.604 151.932 107.492 152.241C107.404 152.212 107.316 152.184 107.228 152.155C106.996 152.77 107.239 152.755 107.368 152.78C107.241 152.987 107.117 153.198 106.996 153.409C107.237 153.694 106.645 155.138 106.518 155.909C106.425 156.41 106.458 157.017 106.413 157.274C106.32 157.818 106.128 157.779 106.119 157.822C106.104 157.896 106.19 158.677 106.138 159.216C106.062 160.011 105.749 160.082 105.947 161.171C105.714 162.536 105.756 164.017 105.723 165.396C105.453 165.123 105.667 166.366 105.624 166.894C105.47 169.918 104.562 172.62 103.223 172.919C102.837 173.102 102.471 173.281 102.124 173.451C101.708 173.656 101.328 173.671 101.111 173.792C100.994 173.857 101.032 174.059 100.856 174.122C100.825 174.132 100.719 173.982 100.404 174.115C99.617 174.464 97.9584 175.578 97.4117 175.391C95.5767 176.187 94.1064 176.269 93.6435 175.968C93.0521 175.647 92.4587 175.333 91.8612 175.027C91.8265 174.923 91.7917 174.82 91.7566 174.716C91.0495 174.765 89.0437 173.492 87.9887 173.021C86.1421 172.175 83.7286 171.266 82.0918 170.624C81.7358 170.484 81.4856 170.267 81.148 170.137C81.0024 170.081 80.7714 170.141 80.6207 170.084C78.9268 169.432 76.6777 168.459 74.9646 167.87C72.883 167.151 70.869 166.481 68.845 165.822C66.7197 165.137 64.6624 164.834 62.6529 164.619C54.9987 163.963 47.8295 163.99 46.1792 159.103C46.4074 159.853 46.0401 159.948 46.6083 159.021C47.0752 158.219 47.7772 157.149 48.3715 155.993C50.2599 152.341 52.265 148.761 54.42 145.313C54.516 145.159 54.6489 145.252 54.7232 145.134C55.1559 144.445 56.0248 142.833 56.542 142.071C56.95 141.46 57.8081 140.643 57.7426 140.302C55.9602 142.213 54.4908 144.582 52.9989 146.875C52.8921 147.04 52.747 146.983 52.7326 147.002C52.4614 147.354 52.7862 147.22 52.467 147.78C52.3568 147.968 50.9368 149.445 51.4806 149.483C51.0645 149.799 49.3454 152.689 49.0987 153.301C49.0217 153.485 49.216 153.43 49.2038 153.468C49.1519 153.632 48.9398 153.604 48.8635 153.736C48.6604 154.087 48.3204 155.075 48.2292 155.248C48.1668 155.365 48.0553 155.546 47.9229 155.759C47.5632 156.356 47.0455 157.083 46.8366 157.473C46.5672 157.979 46.7965 158.002 46.5714 158.405C46.4067 158.706 46.4284 158.318 46.0248 158.904C45.7486 159.286 45.7294 159.879 45.7854 159.557C45.7872 159.475 45.692 159.354 45.642 159.325C45.6669 159.416 45.6986 159.507 45.7421 159.597C45.9596 160.093 46.6034 160.994 46.9702 161.326C46.9915 161.347 47.1591 161.293 47.2041 161.348C47.2988 161.461 47.1224 161.565 47.1873 161.662C47.1972 161.805 48.8365 163.009 49.2301 163.125C49.4593 163.24 49.6716 163.202 49.8029 163.26C49.9063 163.305 49.8547 163.464 49.9628 163.51C49.9969 163.524 50.3372 163.503 50.6363 163.607C50.9031 163.715 52.0224 164.156 52.168 164.18C52.2581 164.201 52.1844 164.064 52.4511 164.125C52.6961 164.18 52.8267 164.362 52.9701 164.391C53.3032 164.459 53.6979 164.392 54.0615 164.445C55.1059 164.591 55.0421 164.764 55.1024 164.78C55.2788 164.818 55.3708 164.652 55.4299 164.655C55.68 164.67 56.2968 164.7 56.525 164.713C56.8079 164.731 56.9119 164.907 57.215 164.934C57.4415 164.953 57.911 164.83 58.4363 164.862C59.6175 164.936 61.0643 165.01 62.2901 165.142C62.6564 165.181 62.6965 165.338 62.8078 165.354C63.394 165.44 63.7522 165.317 63.9219 165.342C65.1373 165.501 67.3321 166.198 68.5013 166.623C68.5233 166.63 68.5489 166.639 68.5779 166.648C69.0949 166.812 70.823 167.259 71.7934 167.606C71.9095 167.647 71.7625 167.723 71.8983 167.749C72.2249 167.811 72.2729 167.572 72.4289 167.632C72.5041 167.662 72.6339 167.85 72.852 167.938C73.9818 168.394 74.8102 168.571 75.3326 168.762C80.3567 170.593 85.4623 172.715 89.9749 175.055C90.4779 175.315 91.1695 175.512 91.8567 176.044C91.844 176.122 91.8312 176.201 91.8184 176.279C91.8799 176.229 91.9415 176.178 92.0031 176.128C92.5212 176.383 92.859 176.523 93.2211 176.714C93.3342 176.769 93.4437 176.831 93.605 176.927C93.6324 176.946 93.6713 177.316 93.8517 176.92C94.2727 177.316 94.0634 176.967 94.4469 176.97C94.8478 176.96 95.3188 177.01 95.8268 176.927C96.1403 177.031 95.0266 177.578 94.9533 177.555C94.8344 177.562 94.7087 177.353 94.6081 177.341C94.306 177.308 94.0192 177.433 93.9902 177.236C93.6156 177.367 94.0542 177.351 93.9875 177.519C93.7519 177.407 93.5528 177.273 93.3858 177.126C93.2829 177.294 93.118 177.285 92.954 177.186C92.317 176.813 91.5313 176.08 91.4762 176.413C91.3591 176.243 91.2413 176.074 91.1229 175.906C90.1373 176.047 89.9144 175.465 89.0295 174.828C89.0655 174.93 89.1014 175.031 89.137 175.133C89.1036 175.15 88.2036 174.839 88.6474 174.702C87.5928 174.655 87.9309 174.043 86.9294 174.129C86.4351 173.971 86.8407 173.833 85.9984 173.454C85.4987 173.23 84.8169 173.095 84.2533 172.863C84.1238 172.809 84.135 172.629 84.0201 172.58C83.9051 172.531 83.7836 172.66 83.6428 172.605C83.3518 172.49 83.0243 172.226 82.8392 172.162C82.6738 172.103 82.3876 172.144 81.989 172.006C80.5975 171.532 81.086 171.506 80.8968 171.353C80.6924 171.191 80.4246 171.383 79.9744 171.173C79.9291 171.152 80.1116 171.038 79.9581 170.986C79.8342 170.944 79.7054 171.094 79.2904 170.973C79.1252 170.919 76.6152 170.032 76.2318 169.905C75.6456 169.699 74.3952 169.092 73.7885 168.886C73.5546 168.806 73.2559 168.863 73.0087 168.778C72.1873 168.494 70.8742 168.043 69.8325 167.694C69.4339 167.561 68.9271 167.331 68.4254 167.119C67.6607 166.804 66.9036 166.588 66.5345 166.682C65.0561 166.403 64.7483 166.13 64.638 166.102C64.3426 166.048 64.1796 166.195 63.8072 166.153C59.0121 165.624 52.9552 165.573 49.5717 164.078C47.4053 163.203 45.8604 161.732 44.9771 159.601C44.5553 160 46.0905 157.429 47.2207 155.392C49.5582 150.875 52.0698 146.438 54.8429 142.213C54.7942 142.15 54.7456 142.087 54.6969 142.024C54.0129 142.988 53.1649 144.095 52.5327 145.077C51.6824 146.389 50.7874 148.549 49.7779 149.294C49.9709 148.861 50.5153 148.309 50.2815 148.186C49.8509 148.896 49.4237 149.611 48.9995 150.334C49.1183 150.371 49.2371 150.409 49.3559 150.446C48.9648 151.22 48.5144 151.986 48.1141 152.765C48.0443 152.9 48.1928 152.858 48.1311 152.974C48.062 153.103 48.0098 152.962 47.996 152.986C47.8193 153.312 47.8668 153.466 47.8439 153.505C47.7849 153.606 47.7319 153.474 47.5462 153.758C47.2016 154.285 47.2512 154.813 46.8935 154.46C46.7995 154.639 46.7055 154.818 46.6114 154.998C46.6506 155.044 46.6898 155.09 46.7291 155.136C46.7802 155.2 46.8312 155.264 46.8821 155.328C45.7812 156.262 46.2423 157.224 45.2601 157.426C45.2375 157.676 45.2191 157.922 45.2105 158.157C45.0376 158.193 44.867 158.227 44.6973 158.263C44.7847 158.337 44.8724 158.41 44.9605 158.483C44.4735 159.228 44.5062 159.612 44.621 159.749C44.719 159.965 44.817 160.169 44.9101 160.363C45.2186 160.981 45.2677 161.139 45.6183 161.626C46.4621 162.658 45.4263 161.767 46.0101 162.784C46.0671 162.645 46.1267 162.507 46.1887 162.372C46.3503 162.472 46.5132 162.565 46.6771 162.65C46.6914 162.817 46.7116 162.986 46.7378 163.157C47.5403 163.075 47.5547 163.635 47.6288 163.687C47.6899 163.721 48.0322 163.551 48.4961 164.135C48.4649 163.58 48.9647 164.371 49.036 164.398C49.0908 164.431 49.8812 164.643 50.2018 164.749C50.446 164.839 50.9638 165.105 51.3599 165.199C51.7111 165.284 51.712 165.114 51.738 165.119C52.1689 165.205 51.8716 165.267 52.185 165.342C52.5013 165.416 52.7723 165.325 52.8392 165.35C52.8729 165.363 52.7285 165.491 52.8857 165.534C53.3085 165.655 54.115 165.644 54.6199 165.71C54.7997 165.734 55.0095 165.889 55.211 165.916C55.5196 165.957 55.6842 165.802 55.8629 165.825C55.9243 165.834 56.3012 166.137 56.8093 166.142C56.9066 166.142 57.2339 165.61 57.5461 166.43C57.5843 166.321 57.6224 166.212 57.6604 166.104C59.3894 165.964 59.8066 166.899 60.6456 166.164C61.9088 166.363 61.0084 166.599 61.1438 166.659C61.2312 166.696 61.6533 166.649 61.6985 166.658C61.7782 166.676 61.7548 166.774 61.8431 166.782C63.4707 166.931 62.7706 166.671 63.3046 166.611C64.5895 166.49 65.4638 167.262 63.3358 166.775C63.3289 166.83 63.322 166.886 63.3151 166.941C63.8461 166.945 65.1933 167.188 64.6968 167.396C64.3076 167.531 61.1902 167.035 62.9293 167.547C63.3232 167.666 63.5609 167.481 64.2004 167.973C64.6498 168.064 64.8081 167.57 65.395 167.886C65.326 167.692 65.2547 167.498 65.1813 167.304C66.0968 167.227 67.1051 167.785 67.7965 167.895C67.8718 167.906 68.0312 167.857 68.2014 167.812C68.5435 167.709 68.9207 167.612 68.6221 168.122C68.9911 168.185 70.6072 168.88 70.9401 168.912C71.0205 168.92 71.2591 168.521 72.2857 169.033C72.342 169.112 72.3987 169.191 72.4555 169.27C71.4203 169.093 73.1019 169.839 72.4927 170.085C72.3945 169.848 71.6548 169.475 71.5592 169.341C71.3978 169.111 72.1043 169.12 71.2726 168.904C70.534 169.413 72.1025 169.59 71.6617 170.16C72.8271 170.218 72.8346 170.543 73.0715 170.637C74.0816 171.038 74.7505 171.196 75.6891 171.617C75.9733 171.568 74.2879 170.756 74.0513 170.74C75.0144 170.551 73.6438 170.048 72.9646 170.129C72.9638 169.97 72.9638 169.812 72.9632 169.653C73.6979 169.99 74.4209 170.285 75.2136 170.435C75.2438 170.505 75.2738 170.575 75.3038 170.645C75.1079 170.665 74.9118 170.685 74.7155 170.705C75.2928 171.055 75.0641 170.51 75.7659 171.167C75.8484 171.018 75.931 170.868 76.0136 170.719C76.7915 171.057 77.5651 171.401 78.3383 171.752C78.8711 171.588 80.3492 172.297 79.9099 172.597C80.5105 172.866 79.8399 172.352 80.4531 172.479C80.7195 172.534 81.2126 172.718 81.2884 172.876C81.0804 173.241 80.3346 172.998 80.0098 173.178C80.112 173.303 83.5837 174.417 83.0895 174.749C83.3319 174.917 83.3089 174.633 83.8143 174.783C85.2362 175.202 87.0729 176.614 88.4039 176.591C87.3111 175.66 86.775 175.815 85.8049 175.38C85.192 175.082 81.3572 173.513 82.3768 173.471C82.214 173.464 82.0521 173.458 81.8898 173.451C81.7973 173.271 81.7041 173.091 81.6102 172.912C82.0213 173.059 82.4308 173.208 82.8403 173.359C82.8856 173.52 82.9302 173.681 82.9747 173.842C83.0553 173.775 83.136 173.708 83.2168 173.641C83.393 173.695 83.569 173.751 83.7448 173.806C83.653 173.889 83.5613 173.972 83.4697 174.055C83.7209 174.183 83.9726 174.314 84.2228 174.445C84.2137 174.277 84.2043 174.109 84.1945 173.941C85.4305 174.444 84.9795 174.349 85.5363 174.909C86.0256 175.165 85.2985 174.512 86.3907 174.936C87.6576 175.441 86.6576 175.465 88.2787 176.15C88.3346 176.094 88.3906 176.038 88.4467 175.982C88.7604 176.222 89.0719 176.463 89.3818 176.707C89.3788 176.601 89.3758 176.494 89.3725 176.388C90.0685 176.783 91.1273 177.149 91.1844 177.598C90.5553 177.057 90.2614 177.626 90.3909 177.827C90.4776 177.962 91.1368 178.347 92.0143 178.847C93.7625 180.022 96.9409 179.134 97.6514 178.838C99.0943 178.337 100.251 178.002 101.379 177.08C100.421 177.337 97.4304 178.828 96.7732 178.726C96.7065 178.724 96.5931 178.155 96.3672 178.881C95.1488 179.038 93.6538 179.32 92.3475 178.626C92.4636 178.497 92.5754 178.364 92.6828 178.229C93.3039 178.922 94.2363 178.191 94.04 178.831C94.2118 178.85 94.3845 178.859 94.5614 178.861C94.5627 178.749 94.564 178.636 94.5652 178.523C94.8146 178.526 95.0712 178.513 95.3312 178.484C95.3433 178.596 95.3554 178.708 95.3675 178.82C95.5924 178.796 95.8182 178.762 96.0465 178.718C96.0492 178.604 96.0508 178.489 96.0518 178.374C96.7773 178.527 98.8462 177.074 98.0782 178.077C98.3951 177.96 98.7121 177.833 99.0272 177.698C98.9938 177.623 98.9605 177.548 98.9271 177.472C99.057 177.405 99.1866 177.336 99.3159 177.266C99.3022 177.354 99.2883 177.442 99.2739 177.529C99.8348 177.137 100.59 177.202 100.88 176.767C100.589 176.851 100.298 176.932 100.008 177.007C100.565 176.864 101.404 176.182 101.486 176.137C101.743 176.001 101.954 176.078 102.238 175.937C102.493 175.811 102.4 175.715 102.449 175.694C103.883 175.079 103.679 175.971 103.955 174.903C104.077 174.967 104.197 175.031 104.317 175.095C104.319 175.092 104.32 175.089 104.321 175.086C104.358 174.965 104.389 174.845 104.414 174.726C104.736 174.553 105.038 174.346 105.312 174.105C105.128 174.084 104.947 174.054 104.775 174.011C105.115 173.659 105.461 173.661 105.505 173.626C105.613 173.527 105.516 173.364 105.542 173.331C106.701 171.503 106.141 172.744 107.245 171.856C107.143 171.342 106.751 171.697 106.482 171.66C106.782 171.166 106.762 170.964 106.915 170.353C106.953 170.196 107.127 170.046 107.149 169.941C107.168 169.846 107.067 169.544 107.099 169.322C107.153 168.956 107.303 168.469 107.348 167.95C107.391 167.518 107.37 166.17 107.403 165.212C107.42 164.806 107.542 164.904 107.547 164.798C107.548 164.755 107.409 164.428 107.417 164.165C107.491 162.011 107.658 159.75 107.966 157.504C108.182 155.925 108.41 154.268 108.997 152.698C109.123 152.366 109.162 152.582 109.22 152.438C109.239 152.395 109.112 152.285 109.287 151.92C109.307 151.881 109.33 151.838 109.359 151.792C109.453 151.639 109.5 151.88 109.573 151.721C109.609 151.643 109.466 151.546 109.615 151.072C109.882 150.212 110.259 149.837 110.282 149.757C110.323 149.61 110.175 149.603 110.239 149.413C110.551 148.481 110.787 147.696 111.036 146.857C111.171 146.469 111.888 143.744 111.933 143.595C112.069 143.272 112.28 143.657 112.374 143.218C112.331 143.078 112.287 142.941 112.242 142.803C112.142 142.982 112.042 143.161 111.94 143.342C112.161 142.832 112.164 142.204 112.252 141.809C112.269 141.738 112.539 141.095 112.59 140.745C112.616 140.901 112.641 141.062 112.667 141.216C112.723 141.174 112.78 141.133 112.836 141.089C112.902 140.386 113.035 139.655 113.158 138.944C113.202 138.686 113.302 138.791 113.345 138.532C113.589 137.008 113.063 137.349 114.121 135.973C113.995 136.467 113.868 138.297 113.792 138.557C113.745 138.737 112.884 139.326 113.692 139.19C113.441 140.653 113.241 139.315 113.086 140.687C113.184 140.678 113.283 140.669 113.381 140.659C113.35 141.143 113.326 141.505 113.102 141.761C113.536 141.948 112.92 143.512 112.72 144.388C112.439 145.664 112.128 147.116 111.734 148.353C111.598 148.78 111.344 148.96 111.326 149.012C111.301 149.089 111.373 149.359 111.318 149.515C111.123 150.097 110.202 151.723 110.419 152.316C111.828 148.951 112.907 145.447 113.65 141.878C113.368 142.281 114.017 138.668 114.027 138.479C114.062 138.308 114.19 138.475 114.206 138.425C114.326 138.058 114.153 137.699 114.169 137.583C114.181 137.489 114.308 137.319 114.346 136.99C114.353 136.93 114.248 136.9 114.255 136.836C114.306 136.41 114.354 135.989 114.397 135.56C114.401 135.533 114.569 135.443 114.58 135.334C114.591 135.223 114.443 135.101 114.445 135.074C114.467 134.842 114.546 134.493 114.601 134.198C114.624 134.086 114.632 133.98 114.624 133.897C114.614 133.805 114.507 133.881 114.494 133.785C114.431 133.497 114.688 133.518 114.461 133.155C114.375 133.036 114.236 133.13 114.109 132.9C114.013 132.738 114.265 132.563 114.254 132.53C114.24 132.47 113.58 132.121 113.52 131.823C114.283 131.769 113.079 131.418 112.989 131.654C112.791 131.436 112.578 131.225 112.356 131.019C112.239 131.014 112.124 131.011 112.008 131.009C111.561 130.595 111.134 130.348 110.701 130.132L110.778 130.157C110.293 130.072 109.816 130.015 109.228 129.891C109.175 129.877 108.184 129.616 108.243 129.544C108.862 129.483 109.464 129.563 109.812 129.875C110.311 129.601 110.432 129.717 110.83 129.846C110.979 129.945 111.162 130.057 111.436 130.18C111.752 130.322 111.837 130.22 111.873 130.237C113.085 130.753 115.022 132.269 114.848 133.358C115.047 133.562 114.724 132.697 114.94 132.992C114.972 133.039 115.276 133.551 115.227 134.248C115.146 135.58 114.884 137.38 114.701 136.343C114.696 136.494 114.69 136.656 114.684 136.806C115.086 137.009 114.891 137.764 114.486 137.622C114.562 137.705 114.637 137.787 114.712 137.871C114.765 138.023 114.78 138.199 114.768 138.438C114.789 139.375 113.515 144.681 113.441 144.961C113.536 144.993 113.631 145.025 113.725 145.057C114.45 142.738 114.674 140.389 115.312 137.812C115.209 137.875 115.106 137.938 115.003 138.001C115.276 136.983 115.525 135.943 115.748 134.904C115.823 136.034 115.753 137.829 115.431 138.975C115.375 139.178 115.269 139.006 115.247 139.051C115.186 139.17 115.39 139.336 115.337 139.788C115.288 140.238 114.922 141.325 114.904 141.427C114.875 141.625 115.02 142.209 114.945 142.542C114.844 142.984 114.752 142.653 114.73 142.741C114.635 143.098 114.637 143.446 114.558 143.726C114.442 144.148 113.95 144.944 114.269 145.345C114.368 145.047 114.462 144.756 114.557 144.456C114.287 146.134 113.412 147.244 113.276 148.942C113.63 149.462 114.003 148.13 113.835 149.306C113.897 149.101 113.957 148.9 114.017 148.693C113.933 148.613 113.849 148.533 113.764 148.453C113.947 148.131 114.129 147.801 114.306 147.475C114.187 147.547 114.067 147.619 113.947 147.691C114.264 146.436 114.501 145.153 115.098 144.839C114.987 144.783 114.876 144.727 114.764 144.672C115.21 143.538 115.068 141.673 115.661 142.136C115.637 142.073 115.614 142.01 115.59 141.947C115.867 141.262 115.532 141.51 115.553 141.238C115.562 141.163 115.951 139.795 116.04 140.448C116.424 139.108 115.724 139.43 115.757 139.051C116.206 138.233 115.931 136.594 116.339 137.319C116.374 137.19 116.409 137.062 116.442 136.935C116.107 136.458 116.589 136.093 116.782 135.637C116.806 135.481 116.83 135.32 116.853 135.166C116.732 135.047 116.611 134.929 116.49 134.814C116.582 134.64 116.636 134.486 116.662 134.362C116.732 132.727 115.63 133.634 116.494 132.302C116.644 132.422 116.791 132.557 116.931 132.712C117.111 133.129 117.234 133.61 117.269 134.101C117.295 131.982 116.02 130.649 115.113 129.823C114.095 128.504 113.146 128.479 111.958 127.558C111.826 127.479 111.403 127.371 111.254 127.332C111.231 127.323 111.207 127.314 111.184 127.305C111.043 127.32 110.902 127.335 110.762 127.351C110.95 127.054 111.466 127.184 110.516 126.885C110.472 126.666 111.022 126.709 111.328 126.891C111.503 126.937 111.999 127.064 112.154 127.157C112.178 127.182 112.199 127.208 112.218 127.233C112.235 127.258 112.17 127.259 112.102 127.262C111.953 127.173 111.476 127.051 111.308 127.008C111.215 127.043 111.118 127.085 111.286 127.14C111.446 127.181 111.901 127.297 112.043 127.383C112.089 127.414 112.16 127.454 112.262 127.506C112.716 127.746 112.004 127.049 113.34 127.884C113.316 127.806 113.291 127.729 113.266 127.651C113.417 127.736 113.569 127.823 113.721 127.914C113.792 128.106 113.86 128.298 113.926 128.492C114.371 128.559 114.714 128.431 115.52 129.139C115.242 129.023 115.386 129.452 115.789 129.821C115.853 129.752 115.917 129.684 115.981 129.615C117.033 130.62 116.492 130.353 117.439 131.46C117.447 131.632 117.449 131.804 117.444 131.978C117.778 132.282 118.278 133.468 118.191 134.484C118.185 134.878 118.091 135.173 117.883 135.013C118.291 135.501 117.994 136.437 117.597 136.746C117.686 136.783 117.776 136.82 117.865 136.858C117.862 137.051 117.859 137.236 117.854 137.428C117.785 137.527 117.716 137.623 117.647 137.72C117.686 137.858 117.724 138.003 117.762 138.141C117.659 138.208 117.556 138.275 117.452 138.342C117.533 138.574 117.614 138.797 117.693 139.029C117.599 139.152 117.506 139.266 117.412 139.386C117.605 139.432 117.436 140.728 117.241 141.064C117.277 141.181 117.312 141.299 117.348 141.417C117.247 141.452 117.146 141.487 117.045 141.521C117.103 141.614 117.16 141.708 117.218 141.802C117.109 141.973 117 142.139 116.89 142.307C117.181 143.144 116.781 143.088 116.748 143.257C116.687 143.569 116.711 144.708 116.651 144.882C116.592 145.056 116.411 145.106 116.36 145.243C115.488 147.535 116.159 146.676 116.096 147.172C116.058 147.438 115.859 147.573 115.808 147.803C115.729 148.195 115.288 150.184 115.223 150.287C115.141 150.437 114.594 149.826 114.587 150.404C114.947 150.552 114.178 151.522 114.872 151.191C114.66 151.634 114.444 152.07 114.222 152.504C114.668 152.619 114.175 153.073 113.947 153.685C113.928 153.737 113.908 153.793 113.887 153.852C113.642 154.535 113.502 155.952 113.094 155.799C113.155 155.995 113.22 156.19 113.286 156.384C112.88 157.526 112.873 158.792 112.773 160.094C112.347 164.003 113.014 168.569 110.916 174.01C110.8 174.27 110.675 174.171 110.586 174.356C110.253 175.321 108.346 177.975 106.786 178.67C106.572 178.788 106.39 178.845 106.243 178.878C106.136 178.885 106.054 178.877 106.004 178.899C105.684 179.036 105.849 179.173 105.703 179.243C105.482 179.347 104.148 179.853 103.682 180.074C103.456 180.182 103.262 180.459 102.972 180.551C102.948 180.56 102.917 180.394 102.896 180.402C102.399 180.631 102.755 180.607 102.586 180.684C101.369 181.228 100.021 181.85 98.4507 182.3C98.0595 182.413 97.4176 182.463 97.055 182.526C96.9165 182.55 97.192 182.622 96.708 182.705C96.5398 182.731 96.4564 182.584 96.2669 182.603C95.451 182.671 95.1588 183.201 94.3767 182.782C93.3676 182.798 91.6426 182.551 90.3306 181.822C89.9638 181.637 89.6291 181.468 89.3721 181.328C89.1811 181.224 89.1331 181.091 88.9495 180.994C88.8191 180.925 88.5221 180.931 88.3188 180.825C88.1152 180.72 87.8585 180.428 87.4622 180.231C87.0455 180.022 86.49 179.838 86.3962 179.791C86.2826 179.735 86.307 179.552 86.1918 179.497C85.8446 179.332 84.8423 179.043 84.3851 178.853C83.8942 178.647 83.6377 178.439 83.4708 178.365C83.3161 178.298 83.0762 178.353 83.0054 178.323C82.895 178.276 82.9391 178.107 82.799 178.046C82.5701 177.948 82.2913 177.945 81.9473 177.8C76.9779 175.707 71.8976 173.923 66.7898 172.177C65.7643 171.822 64.6113 171.567 63.3984 171.371C62.7127 171.263 62.3093 171.334 61.2597 171.177C60.8321 171.115 61.0295 170.954 60.6883 170.957C60.5362 170.959 60.5626 171.102 60.371 171.093C59.524 171.051 58.5217 170.846 58.141 170.818C57.9905 170.807 57.8057 170.953 57.494 170.93C55.1749 170.757 52.2895 170.475 49.4984 169.696C48.034 169.312 45.685 168.423 44.1045 167.162C42.2715 165.776 40.8087 163.747 39.972 161.678C39.4076 160.438 39.4866 158.739 39.8355 157.764C40.1678 156.742 40.558 156.11 40.8815 155.55C41.5395 154.46 42.0479 153.682 42.4463 152.902C42.5154 152.769 42.584 152.636 42.652 152.505C45.3262 147.368 48.0756 142.278 51.4907 137.507C49.6301 139.565 47.6956 142.749 46.1491 145.346C44.7302 147.72 43.3768 150.181 42.0732 152.708C41.6637 153.512 41.1536 154.297 40.4917 155.422C40.167 156 39.7688 156.665 39.4405 157.743C39.0924 158.781 39.0509 160.549 39.6345 161.818C41.4209 166.714 46.9253 169.837 51.0624 170.51C54.5015 171.26 58.4941 171.356 61.6137 171.767C61.7558 171.785 62.0618 171.694 62.3618 171.742C62.4302 171.751 63.184 172.07 63.4384 172.112C63.2524 171.682 64.21 172.183 64.4995 172.233C64.8759 172.29 65.7025 172.252 66.4554 172.602C66.5208 172.632 66.5767 172.661 66.6247 172.687C67.2131 172.982 66.9772 173.037 67.0192 173.06C67.3136 173.221 67.499 173.022 67.7478 173.077C68.7686 173.294 73.7349 175.125 75.0927 175.65C75.4464 175.782 75.4033 175.933 75.4829 175.962C75.6944 176.041 76.0475 176.007 76.3859 176.135C76.9937 176.365 77.6388 176.771 77.9702 176.901C78.7644 177.209 80.3257 177.651 81.3404 178.082C81.626 178.202 81.5441 178.344 81.6729 178.399C82.2409 178.637 83.782 179.115 84.4722 179.441C85.5957 179.964 86.6869 180.621 87.8205 181.155C87.8572 181.256 87.8936 181.357 87.9298 181.458C88.0756 181.449 88.2217 181.44 88.368 181.432C88.917 181.745 89.4728 182.048 90.0317 182.351C92.4802 183.722 95.2144 183.561 97.1593 183.145C97.508 183.096 99.074 182.787 99.3018 182.691C99.5032 182.621 99.637 182.382 99.9308 182.298C100.341 182.177 100.097 182.646 100.703 182.292C100.863 182.196 100.644 182.131 100.963 181.945C101.093 181.892 103.103 180.866 103.191 180.817C103.372 180.744 103.671 180.943 103.718 180.926C103.965 180.838 103.843 180.63 103.986 180.53C104.406 180.236 105.048 180.077 105.114 180.038C105.475 179.824 105.955 179.513 106.423 179.233C107.49 178.652 108.513 177.777 109.167 177.142C109.33 176.987 109.446 177.124 109.477 177.098C109.677 176.925 109.62 176.671 109.761 176.48C110.563 175.449 111.446 173.788 111.765 172.764C111.805 172.643 111.783 172.364 111.845 172.161C112.184 170.998 112.231 171.422 112.258 171.353C112.306 171.203 112.193 170.888 112.248 170.491C112.407 169.442 112.587 167.592 112.645 166.615C112.694 165.877 112.89 165.904 112.897 165.855C112.908 165.752 112.762 165.461 112.762 164.992C112.759 164.09 112.911 164.205 112.918 163.839C112.919 163.809 112.764 163.855 112.762 163.456C112.758 162.677 112.985 161.013 113.042 160.256C113.062 159.962 112.921 159.881 112.945 159.583C112.98 159.104 113.271 158.097 113.286 158.022C113.289 158 113.128 157.925 113.148 157.793C113.171 157.649 113.28 157.523 113.298 157.418C113.391 156.813 113.343 155.762 113.867 156.179C113.765 155.965 113.667 155.749 113.572 155.531C113.743 154.975 113.917 154.449 114.113 153.947C114.415 153.189 114.692 152.426 114.963 151.655C115.081 151.318 115.289 151.082 115.385 150.796C115.485 150.51 115.726 149.2 115.787 148.988C115.912 148.614 116.522 146.468 116.598 146.199C116.764 145.684 117.136 145.235 117.142 145.006C117.146 144.825 116.97 144.949 117.011 144.614C117.083 144.029 117.473 143.101 117.506 142.924C117.521 142.848 117.386 142.969 117.521 142.266C117.592 141.891 117.75 141.707 117.775 141.571C117.781 141.53 117.58 141.554 117.74 140.814C117.85 140.299 118.034 140.104 118.044 140.049C118.058 139.966 117.931 139.746 117.987 139.417C118.123 138.655 118.49 137.273 118.58 136.539C118.598 136.395 118.4 136.43 118.475 135.864C118.527 135.463 118.675 135.546 118.695 135.397C118.721 135.199 118.617 134.906 118.607 134.518C118.614 134.317 118.616 134.109 118.61 133.883C118.829 132.941 117.399 129.746 115.91 128.74C114.474 127.507 113.226 126.88 113.109 126.772C112.954 126.653 112.759 126.553 112.712 126.435C112.82 126.399 112.929 126.362 113.038 126.327C113.666 126.971 113.512 126.528 113.727 126.618C114.033 126.738 115.169 127.473 115.512 127.645C115.634 127.702 115.483 127.371 116.117 127.731C116.813 128.147 116.896 128.66 117.459 128.626C118.074 129.87 119.382 131.176 118.37 129.42C117.91 128.453 114.842 126.035 113.088 125.244C112.824 125.085 111.979 124.869 111.681 124.792C110.905 124.635 110.26 124.521 109.959 124.47C109.132 124.328 107.564 124.266 106.546 124.144C105.951 124.065 104.468 123.941 104.544 123.724C104.013 123.664 104.563 123.92 104.45 123.944C104.215 123.99 102.553 123.758 102.24 123.76C100.681 123.737 98.7468 123.995 97.2595 123.758C97.3265 123.696 97.3939 123.634 97.4617 123.572C97.789 123.45 99.3541 123.585 99.5266 123.301C97.2373 123.307 94.9689 123.417 92.8233 123.537C92.8608 123.781 90.2687 123.916 90.1758 123.803C90.2151 123.683 90.2524 123.563 90.2904 123.442C91.7237 123.827 91.5809 123.234 92.5923 123.496C93.0023 123.477 92.871 123.289 93.0698 123.24C95.0938 122.762 93.1165 123.638 94.6857 123.383C94.1912 123.123 95.4931 122.954 96.0872 122.897C96.2174 122.881 98.0131 122.899 98.2297 122.895C99.4304 122.842 101.533 122.701 102.745 122.908C103.707 122.964 104.241 122.791 105.125 122.805C105.789 122.817 105.589 122.946 105.903 122.972C106.553 123.03 106.819 122.621 107.175 123.262C107.625 123.232 108.078 123.205 108.53 123.184C108.519 123.277 108.508 123.37 108.497 123.463C108.777 123.496 109.052 123.531 109.329 123.567C109.423 123.485 109.517 123.403 109.612 123.322C110.477 123.57 110.074 123.744 110.201 124.029C110.387 124.075 110.574 124.121 110.761 124.168C110.936 123.989 111.113 123.81 111.292 123.633C111.48 123.666 111.669 123.701 111.859 123.737C112.218 123.83 113.239 124.091 113.558 124.282C114.223 124.622 114.92 125.001 115.663 125.471C115.677 125.59 115.69 125.708 115.702 125.826C115.754 125.748 115.806 125.67 115.857 125.592C117.333 126.729 120.098 127.677 121.241 132.942C121.384 133.639 121.349 131.768 120.625 130.245C119.934 128.7 119.006 127.753 118.899 127.619C117.423 125.887 114.464 124.522 114.651 124.25C114.417 124.211 114.081 124.091 113.725 123.94C113.387 123.737 112.304 123.46 111.922 123.361C111.134 123.274 110.147 123.036 109.777 122.778C110.504 122.892 111.228 123.017 111.957 123.155C112.35 123.257 113.468 123.543 113.816 123.752C113.955 123.823 114.095 123.896 114.236 123.97C114.258 123.856 114.278 123.741 114.299 123.627C115.254 124.633 115.387 124.648 116.977 125.185C116.894 125.31 116.81 125.434 116.727 125.558C117.961 125.676 119.338 128.278 119.893 128.071C120.467 128.884 121.082 129.946 121.465 131.328C121.991 133.459 122.141 131.686 122.252 134.809C122.261 135.165 122.219 135.784 122.045 136.853C122.005 137.097 121.849 137.024 121.818 137.39C121.808 137.497 121.981 138.124 121.793 139.274C121.763 139.452 121.621 139.445 121.575 139.63C121.471 140.05 121.607 140.951 121.219 140.489C120.801 142.159 121.287 141.519 121.339 142.076C121.37 142.445 121.118 142.322 121.119 142.638C121.117 143.027 121.451 142.81 121.004 144.283C121.022 144.113 121.042 143.937 121.059 143.765C120.969 143.835 120.878 143.904 120.787 143.973C120.773 144.862 120.534 144.725 120.847 145.221C120.518 145.8 120.372 146.327 120.179 147.177C119.788 148.822 120.464 148.125 119.317 149.797C119.304 150.118 119.288 150.446 119.269 150.769C118.936 151.2 118.859 150.736 118.567 151.446C119.182 151.024 118.496 152.498 118.763 152.893C118.665 152.888 118.567 152.883 118.47 152.877C118.409 153.04 118.349 153.198 118.288 153.36C118.358 153.387 118.428 153.414 118.498 153.441C118.364 153.636 118.227 153.832 118.092 154.023C118.098 154.211 118.103 154.399 118.107 154.589C117.855 154.794 117.603 154.995 117.348 155.197C117.333 155.227 117.318 155.258 117.303 155.288C117.269 155.348 117.234 155.409 117.2 155.472C117.315 155.487 117.429 155.503 117.542 155.521C117.468 155.605 117.394 155.695 117.32 155.789C117.538 155.731 117.709 155.874 117.594 156.204C117.502 156.489 117.23 156.035 117.2 156.739C117.2 156.794 117.434 156.923 117.333 157.614C117.222 158.473 117.106 158.031 117.071 158.184C117.065 158.215 117.156 158.51 117.139 158.78C117.129 158.933 117 159.069 116.998 159.09C116.991 159.188 117.144 159.235 117.134 159.371C117.107 159.714 116.986 160.19 116.965 160.558C116.956 160.724 117.038 160.89 117.034 160.966C117.027 161.083 116.875 161.225 116.868 161.347C116.843 161.795 117.282 162.527 116.618 162.725C117.201 163.204 116.436 164.195 116.843 164.138C116.677 165.332 116.908 169.525 116.194 169.405C116.661 170.437 116.245 170.308 116.193 170.732C116.128 171.214 116.279 170.982 116.209 171.368C116.033 172.295 115.781 173.212 115.433 174.286C115.399 174.091 115.36 173.899 115.319 173.711C114.946 174.793 115.295 174.478 114.861 175.682C113.877 177.978 114.116 176.959 113.748 177.169C114.098 177.193 112.155 179.884 111.779 180.071C111.605 180.193 112.089 179.392 110.6 180.855C110.748 180.853 110.897 180.849 111.047 180.842C110.417 181.297 109.014 182.355 108.209 182.757C108.135 182.801 108.074 182.835 108.04 182.844C107.969 182.864 107.257 182.385 107.163 183.11C107.075 183.051 106.987 182.992 106.898 182.933C106.536 183.253 106.147 183.588 105.736 183.93C105.584 183.82 105.431 183.71 105.279 183.599C105.132 183.676 104.979 183.755 104.827 183.832C104.996 183.914 105.166 183.994 105.335 184.075C104.387 184.497 103.188 185.32 102.751 184.958C102.557 185.146 102.356 185.336 102.148 185.524C101.924 185.436 101.699 185.347 101.476 185.256C100.32 185.749 100.321 185.858 99.467 186.31C99.4661 186.174 99.4645 186.037 99.4621 185.901C98.8624 186.279 97.5713 186.791 96.3177 186.948C95.7359 187.036 94.6296 186.884 94.4736 186.89C94.355 186.931 92.6264 187.505 92.5122 186.839C90.279 186.703 89.1346 185.895 88.3106 185.392C88.2647 185.358 88.219 185.328 88.1714 185.302C87.9344 185.174 87.7563 185.243 87.4833 185.11C87.0925 184.92 86.7409 184.65 86.5142 184.542C86.3844 184.48 86.2938 184.594 86.2041 184.552C85.7796 184.354 86.0908 184.351 85.6476 184.132C85.6061 184.113 85.2055 184.103 84.8519 183.901C84.6547 183.787 84.2121 183.349 84.1643 183.327C83.9537 183.229 83.9518 183.663 83.4333 182.91C83.4219 182.988 83.4104 183.065 83.399 183.143C82.4329 182.894 82.43 182.53 82.2588 182.425C82.2364 182.413 81.9646 182.431 81.841 182.355C81.6324 182.228 81.6151 182.027 81.569 181.997C81.4065 181.895 80.79 181.707 80.4709 181.384C80.3525 181.878 78.9343 181.47 78.8454 180.821C78.5601 180.825 78.2745 180.829 77.9894 180.836C77.9145 180.704 77.839 180.573 77.763 180.442C77.6608 180.501 77.5593 180.561 77.4576 180.622C77.1777 180.289 76.8941 179.957 76.6074 179.625C76.5101 179.809 76.4129 179.992 76.3157 180.175C76.2233 180.114 76.1312 180.054 76.0388 179.993C76.0187 179.81 75.9982 179.627 75.9773 179.444C75.8394 179.425 75.7007 179.406 75.5631 179.387C75.4898 179.486 75.4167 179.585 75.3435 179.684C74.6138 179.557 75.3585 178.625 73.7043 179.078C73.5319 178.916 73.3579 178.754 73.1847 178.593C72.7996 178.937 72.4571 178.523 72.0872 178.447C71.8261 178.394 71.7801 178.569 71.4401 178.455C71.0992 178.34 71.1672 178.181 71.1412 178.171C70.8669 178.065 70.6085 178.137 70.4135 178.038C70.3843 178.023 70.3727 177.802 70.1168 177.701C69.8605 177.6 69.6308 177.753 69.2553 177.583C69.0622 177.496 69.0592 177.312 68.8858 177.238C68.0614 176.884 66.9291 177.433 66.6101 176.237C66.4874 176.287 65.9395 176.346 65.4456 176.333C65.2934 176.361 65.1468 176.37 65.0546 176.334C64.6339 176.176 64.8465 176.025 64.6713 175.942C64.6426 175.93 64.4933 175.961 64.0616 175.861C63.9834 175.843 63.9794 175.96 63.9679 175.959C63.4735 175.854 62.3683 175.602 61.6666 175.514C61.604 175.505 61.2531 175.788 60.7199 175.306C59.8494 175.541 58.1828 174.735 56.827 175.107C56.6457 175.102 56.4319 174.969 56.3503 174.966C55.6382 174.936 55.8861 175.321 54.2691 174.636C54.3847 174.827 53.9779 174.945 53.4027 174.858C52.5344 174.721 53.2025 174.479 52.4923 174.404C52.4784 174.496 52.4645 174.589 52.4506 174.681C50.8321 174.164 50.4209 174.509 48.5809 174.03C47.9149 173.853 46.9653 173.31 46.7991 173.244C46.7371 173.226 45.8938 173.14 45.8145 173.104C45.3924 172.935 45.198 172.733 44.838 172.56C43.6422 172.008 42.048 171.275 42.6061 171.007C42.2229 170.884 41.8368 170.743 41.4495 170.585C40.6221 169.225 39.3116 168.929 39.4914 168.31C39.2251 168.185 38.963 168.055 38.6997 167.914C37.532 166.467 36.6492 164.876 36.0214 163.316C35.0726 161.238 35.1692 158.224 35.727 156.654C36.2484 155.002 36.7964 154.165 37.1842 153.491C37.9758 152.204 38.4072 151.586 38.7427 150.971C38.9581 150.572 39.1734 150.177 39.3886 149.786C39.3032 149.564 40.1474 148.123 40.2158 148.058C40.5139 147.772 40.6556 148.32 40.961 147.576C40.8542 147.418 40.7491 147.257 40.6435 147.097C41.0851 146.18 40.9971 146.69 41.2907 146.397C41.3532 146.242 41.2109 146.227 41.3135 146.023C41.8608 144.925 43.1127 142.734 43.7987 141.57C43.9375 141.333 44.0218 141.432 44.0657 141.36C44.1859 141.157 44.2838 140.692 44.531 140.286C46.0301 137.809 48.3533 134.393 50.2846 132.007C50.4144 131.846 50.5474 131.913 50.6354 131.807C50.7603 131.654 50.9297 131.232 51.0626 131.078C51.1865 130.934 51.3566 130.895 51.4944 130.738C52.1251 130.02 52.8136 128.869 53.8021 128.252C53.8781 128.201 55.1161 127.727 55.1685 127.736C55.4464 127.784 54.9562 128.793 56.4351 127.772C55.5611 129.097 56.2012 129.096 57.8921 127.867C57.1372 128.631 56.5373 129.365 55.9728 130.096C56.0179 130.138 56.063 130.18 56.1081 130.222C56.8984 129.802 57.501 129.267 58.5834 128.345C58.5844 128.42 58.5905 128.49 58.596 128.561C57.8554 129.595 57.0186 130.605 56.778 131.477C57.779 130.764 58.7991 130.08 59.983 129.464C59.9624 129.539 59.9422 129.615 59.9224 129.691C59.5232 130.17 58.6938 131.107 58.47 131.519C57.5875 133.096 59.7517 130.603 59.5669 131.19C58.2597 132.492 57.1143 133.91 56.0241 135.338C56.0456 135.433 60.9917 130.459 61.4264 131.162C61.0342 131.534 60.6681 131.937 60.3151 132.353C60.5832 132.283 60.8617 132.208 61.1259 132.154C61.1113 132.23 61.0966 132.307 61.0817 132.385C60.5222 133.085 59.9978 133.84 59.4983 134.609C61.1768 132.418 62.3376 131.668 63.2501 132.428C63.2331 132.473 63.2134 132.52 63.1914 132.57C62.4992 132.091 60.6617 134.222 59.8706 135.484C60.2149 135.379 60.9381 134.295 61.2094 134.193C61.287 134.16 61.2131 134.454 61.3864 134.373C61.8454 134.115 63.2631 133.132 63.2216 133.502C63.2385 133.593 61.3737 135.866 60.978 136.391C62.0647 135.482 63.1906 134.379 64.0725 134.118C63.9479 134.802 63.8775 135.61 62.8992 136.77C62.7979 137.2 65.1006 135.246 65.0504 135.566C64.927 135.849 64.6978 136.26 64.4669 136.709C64.7242 136.382 64.9682 136.094 65.1457 135.89C65.1771 135.925 65.2084 135.96 65.2398 135.995C64.8316 136.641 64.3841 137.716 63.4866 138.784C63.7088 138.901 64.2203 138.239 64.4655 137.966ZM102.032 122.316C102.001 122.11 102.669 122.163 103.045 122.183C102.99 122.143 102.935 122.104 102.88 122.064C103.685 122.129 105.179 122.304 105.265 121.913C105.844 121.905 105.564 122.233 105.747 122.287C105.819 122.308 106.587 122.167 107.166 122.472C107.308 122.485 107.451 122.498 107.594 122.512C107.635 122.385 107.676 122.257 107.718 122.13C107.903 122.31 108.084 122.489 108.263 122.67C106.186 122.46 104.103 122.345 102.035 122.317C102.034 122.317 102.033 122.316 102.032 122.316ZM121.518 138.471C121.347 139.222 121.05 140.355 121.44 140.179C121.497 139.696 121.548 139.218 121.595 138.734C121.57 138.646 121.544 138.561 121.518 138.471ZM76.7992 179.34C76.4166 178.814 75.8376 178.919 75.0637 178.563C75.0387 178.633 75.0138 178.704 74.9889 178.774C75.3778 178.727 76.1927 179.161 76.7992 179.34ZM84.818 124.045C84.6916 124.017 84.5653 123.99 84.4389 123.962C84.9532 123.562 85.045 123.844 85.6263 123.805C85.6614 123.803 85.6493 123.711 85.6615 123.711C85.8038 123.705 85.9353 123.815 86.0638 123.814C86.3116 123.81 86.5137 123.699 86.9527 123.703C87.2922 123.706 87.2953 123.882 87.4146 123.878C87.4821 123.875 87.9482 123.661 88.4437 123.579C88.6461 123.537 88.8688 123.527 89.0571 123.593C89.4674 123.732 89.0698 123.852 88.4434 123.925C87.1857 124.044 85.0537 124.069 84.818 124.045ZM81.1636 123.712C81.2854 123.71 81.4075 123.709 81.5294 123.707C81.1626 123.977 81.9026 123.937 82.4455 123.931C82.4286 124.191 81.2799 124.079 80.7658 124.156C80.8985 124.008 81.031 123.86 81.1636 123.712ZM96.3846 123.926C95.8877 123.971 95.9568 123.645 95.9741 123.547C96.1337 123.541 96.2935 123.535 96.4516 123.529C96.4292 123.662 96.4068 123.794 96.3846 123.926ZM92.71 124.216C92.848 123.988 93.8828 123.835 94.3907 123.791C94.4129 123.79 94.2797 123.918 94.6361 123.889C94.7439 123.879 95.7877 123.393 95.5753 123.901C94.6044 123.999 93.6454 124.108 92.7114 124.216C92.711 124.216 92.7105 124.216 92.71 124.216ZM91.6683 124.143C91.8591 124.063 92.0419 123.984 92.2335 123.905C92.34 124.002 92.446 124.1 92.5512 124.197C92.3348 124.235 92.1101 124.274 91.8963 124.311C91.8219 124.255 91.7438 124.199 91.6683 124.143ZM42.692 149.083C42.5729 149.071 42.4537 149.059 42.3344 149.047C42.1877 149.175 42.1941 150.176 42.4078 149.975C42.5005 149.68 42.5973 149.379 42.692 149.083ZM44.6966 145.957C44.8355 145.826 44.9742 145.696 45.1128 145.566C45.0534 145.293 44.9982 145.014 44.9418 144.738C44.3733 145.467 43.7672 146.246 44.3251 146.38C44.2231 146.56 44.121 146.742 44.0188 146.924C43.9058 146.659 43.8292 146.641 43.4344 147.05C43.6513 147.313 43.2382 147.721 42.986 148.325C43.2309 147.918 43.4705 147.524 43.7192 147.117C43.768 147.144 43.8169 147.171 43.8658 147.199C43.3356 148.109 44.2828 147.135 44.4223 146.438C44.5132 146.429 44.6053 146.418 44.6967 146.408C44.6966 146.257 44.6966 146.107 44.6966 145.957ZM99.6066 183.613C99.4362 183.613 99.2626 183.611 99.0894 183.607C98.6958 184.498 99.7447 183.455 100.756 183.666C100.333 183.364 101.553 182.884 101.598 182.824C101.404 182.747 101.21 182.669 101.017 182.59C100.578 182.938 100.113 183.28 99.6066 183.613ZM94.5076 184.027C95.2958 184.464 91.4915 184.286 90.2455 183.38C90.083 183.292 89.8763 183.111 89.6945 182.946C89.6318 182.863 89.5714 182.791 89.5195 182.774C89.4196 182.803 89.3199 182.832 89.2203 182.862C89.2717 182.594 87.959 182.204 87.4298 182.085C87.4295 181.98 87.429 181.874 87.4283 181.768C87.2407 181.712 87.0535 181.657 86.8656 181.602C86.9296 181.53 86.9937 181.458 87.0579 181.387C86.8769 181.419 86.6964 181.453 86.5162 181.487C85.9515 181.341 86.4935 181.046 86.0382 180.995C85.5327 180.94 86.0976 181.558 85.995 181.728C86.3616 181.854 87.1909 182.154 87.5382 182.332C87.7375 182.436 87.3481 182.623 88.3888 182.726C88.5293 182.91 88.6695 183.095 88.8075 183.279C89.0227 183.309 89.2382 183.339 89.4541 183.371C89.828 183.501 90.1986 183.603 90.5764 183.685C90.6621 183.862 90.7536 184.039 90.8514 184.214C90.9367 184.311 92.7865 184.478 92.6934 184.327C93.3429 184.712 94.8057 184.87 96.1007 184.716C96.2178 184.631 96.3319 184.544 96.4432 184.457C95.2239 184.758 96.0417 184.43 95.6592 184.334C95.4385 184.279 94.7564 184.153 94.5076 184.027ZM40.3486 153.94C40.7276 152.703 40.585 153.475 41.1657 152.44C40.9798 152.429 40.7934 152.419 40.608 152.405C40.6229 153.023 39.8447 153.881 40.3479 153.941C40.3481 153.94 40.3484 153.94 40.3486 153.94ZM46.9443 141.157C46.6139 141.894 47.041 141.694 46.5926 142.601C46.5924 142.601 46.5921 142.602 46.5919 142.602C46.8758 142.166 47.1688 141.72 47.4576 141.286C47.2866 141.243 47.1155 141.2 46.9443 141.157ZM65.5287 173.688C65.9638 173.869 65.9783 173.789 66.2008 173.998C66.2602 174.042 66.3295 174.096 66.4136 174.165C67.4573 174.17 66.6435 173.953 66.7322 173.678C66.5879 173.684 66.4432 173.69 66.2982 173.697C66.2252 173.709 66.1518 173.722 66.078 173.735C65.7651 173.361 66.1744 173.34 66.1835 173.316C66.1832 173.316 66.1828 173.316 66.1825 173.316C66.2073 173.233 66.2272 173.219 66.0858 173.123C65.8962 173.308 65.7094 173.496 65.5287 173.688ZM68.3843 174.219C68.0843 174.322 67.9015 174.521 68.4901 174.845C68.4905 174.845 68.491 174.845 68.4914 174.845C68.6749 174.454 69.1707 174.983 69.4512 175.047C69.5376 175.026 69.6246 175.007 69.7112 174.986C69.2707 174.73 68.8269 174.474 68.3843 174.219ZM78.8402 177.548C78.6668 177.988 78.1487 177.83 78.6935 178.517C78.8337 178.564 78.9736 178.611 79.1132 178.659C79.2417 178.599 79.3707 178.539 79.4998 178.48C80.894 179.988 81.9823 178.849 78.8401 178.152C78.8396 178.152 78.839 178.152 78.8385 178.152C78.8395 177.951 78.8399 177.749 78.8402 177.548ZM75.7124 176.39C75.6036 176.614 75.4948 176.839 75.3862 177.063C75.2009 176.356 74.4966 176.706 73.8645 176.031C73.7688 176.077 73.673 176.123 73.5773 176.17C73.3487 175.905 70.4859 174.868 70.9861 175.445C71.2046 175.696 71.8697 175.685 71.9185 175.708C72.0854 175.785 72.2403 176.065 72.5334 176.154C72.7031 176.206 73.1404 176.093 73.4804 176.215C74.246 176.487 75.3908 177.62 76.5995 177.399C76.644 177.496 76.6883 177.593 76.7324 177.69C77.4765 177.926 77.3216 177.612 77.8933 178.139C78.7957 177.217 75.1415 177.147 76.1462 176.508C76.1458 176.508 76.1454 176.508 76.145 176.508C76.0007 176.468 75.8564 176.429 75.7124 176.39ZM55.0556 172.123C55.0278 171.909 53.9735 172.118 54.2722 171.641C53.9209 171.777 53.5588 171.908 53.1938 172.035C53.1897 172.082 53.1857 172.129 53.1817 172.176C53.5262 172.188 53.8711 172.195 54.2073 172.197C54.1997 172.272 54.1921 172.346 54.1845 172.421C54.7272 172.222 56.7133 172.522 56.6246 172.777C56.7396 172.675 56.8544 172.572 56.9679 172.469C57.8775 172.849 58.6891 172.583 59.6242 172.956C59.7059 172.869 59.7874 172.783 59.8689 172.696C59.911 172.775 59.9528 172.854 59.9945 172.932C60.3389 172.97 60.679 173.009 61.0132 173.05C62.1339 172.853 60.0431 172.264 59.7524 172.291C59.7161 172.295 59.7063 172.488 59.4806 172.501C59.093 172.522 56.8112 172.159 56.0441 172.212C56.0494 172.084 56.0547 171.955 56.0601 171.827C55.7293 171.928 55.3942 172.027 55.0556 172.123ZM82.4983 179.638C82.4898 179.778 82.4811 179.917 82.4722 180.057C83.2953 180.282 83.727 180.612 83.7132 180.128C83.7128 180.128 83.7124 180.128 83.712 180.127C83.309 179.962 82.9043 179.799 82.4983 179.638ZM119.835 134.591C119.82 134.594 119.805 134.601 119.791 134.612C119.558 134.658 119.448 135.084 119.571 135.651C119.649 135.63 119.727 135.608 119.805 135.587C119.665 135.355 119.848 135.102 119.967 134.626C120.041 134.082 120.049 133.398 119.883 132.646C119.755 132.672 119.627 132.698 119.499 132.724C119.692 133.305 119.81 133.952 119.835 134.591ZM81.852 179.291C81.676 179.045 80.8242 179.189 81.2534 179.399C81.5807 179.559 81.9458 179.423 81.852 179.291ZM48.8465 138.606C48.7107 138.767 48.5724 138.931 48.4378 139.092C48.4738 139.242 48.5098 139.393 48.5459 139.544C48.5462 139.543 48.5464 139.543 48.5467 139.542C48.6432 139.234 48.7449 138.919 48.8465 138.606ZM63.5224 173.305C64.0983 173.378 64.6486 173.465 65.1635 173.569C65.1853 173.499 65.2071 173.43 65.229 173.361C64.6522 173.498 64.4831 173.181 64.3575 173.138C64.3581 173.138 64.3586 173.139 64.3592 173.139C63.9555 173.005 63.5489 172.897 63.1383 172.753C63.2709 172.936 63.3992 173.121 63.5224 173.305ZM61.5104 172.594C61.5645 173.116 61.6998 173.182 62.6734 172.938C62.6448 172.871 62.6159 172.804 62.5867 172.736C62.0962 172.714 61.7939 172.803 61.9096 172.546C61.7773 172.562 61.6443 172.578 61.5104 172.594ZM70.7797 175.109C70.7152 174.914 69.7355 174.757 69.7592 174.852C69.77 174.889 70.9042 175.489 70.7797 175.109ZM110.375 125.075C110.617 125.149 110.85 125.223 111.088 125.299C110.756 125.302 110.425 125.308 110.093 125.315C110.186 125.235 110.281 125.155 110.375 125.075ZM107.614 125.453C107.446 125.369 108.064 124.969 107.032 124.743C107.794 124.809 108.555 124.888 109.311 124.979C108.944 125.005 108.584 125.035 108.218 125.067C108.264 125.206 108.311 125.345 108.357 125.484C108.107 125.472 107.86 125.462 107.614 125.453ZM106.838 125.033C107.212 125.416 105.069 125.252 104.877 125.205C104.833 125.192 104.638 124.913 104.564 124.851C104.89 124.871 105.212 124.894 105.537 124.919C105.434 124.827 105.332 124.735 105.23 124.644C105.612 124.643 105.997 124.646 106.379 124.651C106.209 124.72 106.039 124.79 105.872 124.86C106.191 124.915 106.516 124.973 106.838 125.033ZM116.883 128.649C116.571 128.345 116.265 128.083 115.966 127.845C115.947 127.996 115.929 128.146 115.907 128.296C116.085 128.435 116.266 128.585 116.448 128.747C116.59 128.71 116.736 128.678 116.883 128.649ZM109.898 125.485C110.385 124.918 111.245 126.444 110.075 125.751C109.957 125.681 109.852 125.54 109.898 125.485ZM104.081 125.08C103.213 125.493 103.455 124.489 104.238 124.831C104.277 124.849 104.145 125.049 104.081 125.08ZM97.8075 125C97.7435 124.998 97.6092 124.671 96.9844 125.003C96.8768 124.969 96.7697 124.935 96.6631 124.901C96.9009 124.734 99.0284 124.6 98.7377 124.933C98.4157 124.942 98.1398 125.002 97.8075 125ZM99.8659 126.191C100.181 126.182 100.496 126.175 100.814 126.17C100.713 126.065 100.606 125.961 100.503 125.858C100.66 125.831 100.817 125.805 100.972 125.779C101.235 125.96 101.504 126.143 101.761 126.327C101.074 126.338 100.388 126.359 99.7038 126.388C99.7576 126.322 99.8116 126.256 99.8659 126.191ZM108.247 126.939C107.654 126.738 106.902 126.791 105.915 126.684C105.915 126.684 105.915 126.683 105.914 126.683C105.865 126.677 105.792 126.529 105.632 126.51C105.494 126.481 102.82 126.48 103.039 126.26C104.084 126.092 104.45 126.448 104.736 125.933C104.78 126.048 104.823 126.164 104.866 126.279C105.844 126.545 106.158 126.186 106.736 126.097C106.726 126.181 106.715 126.265 106.705 126.349C107.073 126.394 107.454 126.442 107.82 126.493C107.774 126.431 107.728 126.37 107.682 126.309C107.813 126.324 107.945 126.339 108.078 126.354C108.372 126.642 108.769 126.751 108.247 126.939ZM98.4356 126.063C98.1534 126.7 95.3274 126.351 94.0722 126.561C94.7157 126.14 95.7673 126.357 96.5024 126.335C97.9251 126.295 96.9348 126.091 97.173 125.98C97.2913 125.924 98.1098 126.315 98.4356 126.063ZM110.469 127.134C109.762 126.972 109.347 127.064 108.757 126.749C108.814 126.709 108.872 126.67 108.93 126.63C109.143 126.695 110.845 127.086 110.469 127.134ZM92.2241 126.494C93.5672 126.651 92.8796 126.106 93.6001 126.503C93.1409 126.556 92.6888 126.609 92.2332 126.662C92.2302 126.606 92.2271 126.55 92.2241 126.494ZM81.4427 176.489C80.9399 176.262 80.4124 175.919 80.0158 176.021C80.3487 176.196 80.6822 176.373 81.0129 176.551C81.1561 176.53 81.2994 176.509 81.4427 176.489ZM97.0717 179.278C96.9354 179.258 96.4881 179.541 96.433 179.55C96.336 179.57 96.3457 179.482 96.3398 179.461C95.7106 179.595 96.3449 179.747 95.8741 179.883C95.7904 179.92 94.6344 179.903 94.1736 179.856C93.4536 179.833 92.7638 179.602 92.5155 179.504C92.3326 179.438 92.0736 179.367 91.7846 179.253C91.4156 179.11 90.9933 178.951 90.6245 178.756C90.3581 178.615 90.3399 178.427 90.07 178.287C88.3445 177.37 84.7888 175.922 83.236 175.162C82.8546 174.97 82.5587 174.621 82.3438 174.549C82.1502 174.549 81.9566 174.55 81.7631 174.551C81.5156 173.716 81.1142 174.202 80.5442 174.04C80.1806 173.937 80.0922 173.687 80.0449 173.669C79.7323 173.549 79.5433 173.578 79.2933 173.498C79.0126 173.407 78.6494 173.17 78.5452 173.148C78.4809 173.136 78.5787 173.455 77.5124 173.049C76.4242 172.636 75.3525 172.219 74.2384 171.815C74.3451 172.705 74.8459 172.298 75.312 172.434C75.4365 172.47 75.3161 172.563 75.424 172.595C75.7286 172.688 76.3441 172.779 76.5816 172.899C76.8376 173.028 76.6439 173.272 77.0191 173.294C77.0382 173.296 77.0268 173.161 77.1133 173.171C77.9841 173.28 78.1702 173.577 79.1722 173.972C79.843 174.215 83.8865 175.777 83.9815 175.93C84.5189 176.619 80.3425 174.832 79.8497 174.626C79.6811 174.546 79.9124 174.493 79.764 174.406C79.7005 174.37 79.0045 174.371 78.3995 174.162C77.6694 173.907 76.2717 173.201 75.5733 172.957C72.8631 172.005 70.1554 171.083 67.4373 170.175C64.3236 169.15 60.8464 168.979 57.3526 168.684C57.2165 168.673 57.0229 168.812 56.5761 168.773C53.87 168.521 51.027 168.192 48.2934 167.047C45.5487 165.952 43.1423 163.61 42.0614 160.811C41.3827 159.203 42.2487 157.704 42.7855 156.773C43.3808 155.772 43.9666 154.882 44.4449 153.945C44.7787 153.297 45.109 152.662 45.445 152.021C46.2983 150.394 47.0554 148.727 48.0795 147.175C48.0954 146.921 48.1156 146.661 48.1337 146.405C47.911 146.966 47.1591 147.771 47.105 147.86C47.0858 147.892 47.0877 148.146 46.9052 148.457C46.6491 148.895 46.4427 149.04 46.4235 149.074C46.3608 149.186 46.504 149.17 46.444 149.277C45.9941 150.077 45.6837 150.715 45.2832 151.461C44.8355 152.297 44.4152 152.626 44.3053 153.35C44.186 153.376 44.0667 153.403 43.9473 153.429C43.9588 153.494 43.9548 153.578 43.9375 153.68C43.868 154.557 42.4033 156.536 41.8203 157.896C41.6324 158.363 41.5133 158.244 41.4583 158.42C41.4814 158.564 41.4484 158.459 41.5077 160.105C41.5635 160.517 41.6166 160.771 41.6563 160.979C41.6762 161.135 41.6859 161.255 41.7492 161.39C41.8181 161.533 41.9476 161.446 42.0443 161.647C42.6203 162.819 43.2009 163.761 44.0951 164.728C44.349 164.996 44.2657 165.089 44.3267 165.146C44.56 165.356 45.094 165.549 45.7141 165.987C46.7217 166.77 48.978 167.716 49.8923 168.053C50.0263 168.109 50.0974 168.29 50.2008 168.316C50.3571 168.355 50.4593 168.214 50.4865 168.22C51.0037 168.349 50.6578 168.418 51.0114 168.465C51.202 168.489 51.4383 168.355 51.871 168.421C52.4411 168.505 52.2912 168.697 52.5339 168.718C52.5597 168.719 52.5942 168.571 52.826 168.605C53.7129 168.738 54.9824 168.854 55.8028 168.932C56.0382 168.955 56.2054 169.074 56.5324 169.105C57.2052 169.175 60.9046 169.383 61.1851 169.48C61.2156 169.489 60.8734 169.684 61.387 169.725C61.5444 169.645 61.7016 169.566 61.8606 169.488C62.0951 169.663 62.3252 169.839 62.5523 170.016C62.6031 169.494 64.065 169.607 63.9639 170.134C64.114 170.179 64.2643 170.225 64.4139 170.272C64.7946 169.966 64.9831 170.133 65.6362 170.053C65.7072 170.183 65.7746 170.313 65.8432 170.444C65.8836 170.377 65.9243 170.31 65.9651 170.242C66.1909 170.71 66.7964 170.456 66.8637 170.474C67.048 170.521 67.1755 170.622 67.2732 170.682C67.3074 170.701 67.3386 170.717 67.3674 170.726C67.8218 170.861 68.8358 171.042 69.3403 171.278C69.3638 171.289 69.2854 171.446 69.4275 171.516C69.6832 171.641 69.7895 171.408 70.0537 171.81C70.1496 171.763 70.2454 171.716 70.3412 171.669C70.4055 171.732 70.4696 171.794 70.5336 171.856C70.9935 171.989 71.4497 172.122 71.9075 172.257C71.4036 172.396 71.8208 172.71 72.3415 172.644C72.5177 172.622 72.442 172.407 72.501 172.399C72.5825 172.385 74.5695 173.175 74.6613 173.334C74.7754 173.315 74.8894 173.296 75.0034 173.277C75.0134 173.4 75.0233 173.523 75.0331 173.646C75.0987 173.628 75.1642 173.61 75.2297 173.591C75.6846 173.964 77.1886 174.035 77.4204 174.163C77.5436 174.23 77.2577 174.634 77.8968 174.825C77.9654 174.71 78.0341 174.595 78.1028 174.48C78.252 174.517 78.4012 174.555 78.5507 174.592C78.8144 174.706 79.1181 175.071 79.0735 175.221C79.1909 175.167 79.3085 175.112 79.4261 175.058C79.5372 175.429 80.7612 175.805 81.3091 175.826C81.4127 175.968 81.5157 176.111 81.6182 176.254C81.8471 176.229 82.0766 176.205 82.3064 176.181C82.7497 176.335 82.2222 176.311 82.3077 176.365C82.4884 176.475 83.599 176.618 83.3754 176.948C83.5087 177.008 83.6418 177.069 83.7746 177.129C83.8889 177.058 84.0034 176.986 84.118 176.915C84.1882 177.371 84.6409 177.423 85.3854 177.929C85.4906 177.88 85.5961 177.832 85.7016 177.783C85.8963 178.015 86.0894 178.248 86.2807 178.481C86.3956 178.374 86.5107 178.266 86.626 178.159C86.7429 178.192 86.8598 178.226 86.9767 178.26C87.0486 178.662 87.5977 178.539 87.735 178.761C87.9338 179.085 87.6041 179.18 87.0485 178.954C86.984 179.185 88.6165 179.895 88.9846 180.078C88.9827 180.023 88.9807 179.969 88.9788 179.915C88.5905 179.751 88.2011 179.59 87.8104 179.431C87.7707 178.733 88.7171 179.399 89.2164 179.579C89.2619 179.595 89.612 179.521 90.0683 179.794C90.2465 179.9 90.7838 180.581 90.9065 180.673C90.9246 180.686 90.9422 180.699 90.9592 180.711C92.3401 181.513 91.3887 180.664 92.8289 181.525C92.5654 181.128 93.434 181.65 94.3837 181.602C94.561 181.621 95.8295 181.277 95.8952 181.241C96.4044 181.122 95.8886 181.498 96.6213 181.291C96.695 181.2 96.767 181.109 96.8372 181.017C97.0053 180.98 97.1678 180.941 97.3317 180.899C98.5043 181.269 98.5852 180.699 98.8923 180.526C99.0173 180.453 98.9053 180.681 99.2394 180.516C99.3652 180.452 99.4561 180.264 99.7928 180.114C100.83 179.64 101.451 180.019 102.085 178.985C102.267 178.997 102.448 179.009 102.631 179.019C102.674 178.871 102.716 178.724 102.757 178.577C103.616 178.492 103.206 178.332 103.461 178.201C104.004 177.922 105.003 177.437 105.48 177.373C105.629 177.34 105.738 177.33 105.793 177.359C106.188 176.461 107.326 176.383 107.562 176.102C107.65 175.909 107.729 175.713 107.797 175.519C108 175.397 108.2 175.264 108.394 175.121C107.854 174.867 108.956 174.243 109.008 174.123C109.112 174.016 109.608 172.372 109.728 171.798C109.897 171.226 110.24 170.251 110.251 170.168C110.271 170.067 110.255 169.074 110.32 168.344C110.419 167.68 110.798 163.982 110.515 164.218C110.432 164.453 110.355 164.793 110.309 165.088C110.218 165.965 109.699 171.537 108.818 172.976C108.16 174.548 106.889 176.101 105.233 176.886C104.146 177.426 103.038 178.03 101.91 178.57C101.761 178.642 101.669 178.514 101.541 178.574C101.347 178.666 100.921 179.046 100.724 179.133C99.9953 179.464 99.0696 179.812 98.6546 179.954C97.7272 180.278 97.042 180.366 96.2916 180.49C96.0701 180.536 94.8579 180.908 93.9699 180.728C93.8145 180.67 93.6633 180.608 93.5135 180.54C93.9721 180.583 95.1114 180.46 95.61 180.366C96.3606 180.252 96.7679 180.271 97.038 180.205C97.2724 180.156 98.3531 179.674 98.8367 179.472C98.9891 179.413 99.0802 179.553 99.2108 179.5C99.9202 179.215 100.823 178.788 101.333 178.354C101.121 178.523 102.639 177.863 102.713 177.818C102.843 177.75 102.916 177.538 103.179 177.398C103.69 177.127 103.774 177.444 104.259 176.825C104.46 176.825 104.658 176.826 104.858 176.829C104.815 176.74 104.902 176.644 105.06 176.545C105.683 176.233 107.136 175.322 107.122 174.611C107.127 174.6 105.802 175.861 104.876 176.181C104.613 176.295 104.416 176.386 104.364 176.41C103.062 177.036 101.216 178.164 99.8803 178.663C99.4815 178.829 98.141 179.069 98.0476 179.095C97.8974 179.154 98.0833 179.247 98.0188 179.275C96.6712 179.816 97.2763 179.303 97.0717 179.278ZM106.644 127.047C107.087 127.108 107.538 127.174 107.981 127.244C107.937 127.333 107.894 127.422 107.851 127.512C107.65 127.452 107.455 127.393 107.251 127.335C107.087 127.373 106.924 127.413 106.762 127.453C106.723 127.317 106.683 127.182 106.644 127.047ZM105.506 127.34C105.113 127.356 105.11 127.159 105.021 127.142C104.76 127.094 104.517 127.158 104.26 127.139C104.589 126.688 105.215 126.948 105.506 127.34ZM113.757 129.583C113.697 129.514 113.395 128.714 112.54 128.788C112.273 128.527 112.002 128.274 111.728 128.028C111.623 127.964 111.286 127.878 111.167 127.847C111.016 127.773 110.865 127.7 110.715 127.628C110.858 127.692 111.014 127.744 111.177 127.787C111.299 127.818 111.647 127.907 111.755 127.972C112.439 128.378 113.325 128.698 113.651 128.914C113.801 129.012 113.746 129.161 113.864 129.241C114.537 129.682 115.456 130.025 115.175 130.473C114.631 129.766 113.839 129.675 113.757 129.583ZM109.141 127.72C109.04 127.598 108.938 127.476 108.837 127.354C109.257 127.41 109.669 127.468 110.088 127.531C109.959 127.621 109.83 127.712 109.702 127.803C109.514 127.775 109.33 127.747 109.141 127.72ZM111.061 156.666C111.106 156.434 111.153 156.206 111.205 155.977C111.126 155.972 111.069 156.235 110.998 156.322C110.998 156.322 110.999 156.321 110.999 156.321C110.918 156.418 110.828 156.351 110.746 156.543C110.851 156.584 110.956 156.625 111.061 156.666ZM48.5778 146.31C48.7849 145.94 50.8064 142.592 50.3967 142.732C50.1862 142.798 49.5919 144.011 49.3901 144.346C49.1093 144.805 48.1139 145.888 48.5778 146.31ZM52.2474 140.433C52.0438 140.214 50.6841 142.267 50.6076 142.495C50.669 142.473 50.787 142.454 50.8402 142.408C51.0918 142.185 51.894 140.83 52.2474 140.433ZM109.067 170.51C109.248 170.337 109.426 170.157 109.601 169.978C109.407 170.002 109.214 170.024 109.021 170.044C109.039 170.194 109.054 170.355 109.067 170.51ZM93.3205 180.595C92.6618 180.472 92.0086 180.24 91.417 179.903C89.1126 178.589 86.7416 177.394 84.3207 176.297C84.6117 176.343 84.903 176.39 85.1941 176.438C87.3113 177.437 89.483 178.607 91.5283 179.706C91.9779 179.949 92.4552 180.123 92.9328 180.228C93.0546 180.354 93.1844 180.477 93.3205 180.595ZM114.098 130.878C114.782 131.461 115.574 132.013 115.732 133.267C115.196 132.287 115.059 131.729 114.171 131.308C114.171 131.308 114.171 131.308 114.17 131.307C114.151 131.165 114.126 131.021 114.098 130.878ZM112.679 149.563C112.64 149.278 112.6 148.991 112.558 148.707C112.46 148.999 112.36 149.29 112.257 149.58C112.398 149.574 112.538 149.569 112.679 149.563ZM67.1415 169.217C66.2555 169.228 64.1681 168.33 63.4096 168.595C63.3625 168.612 63.7537 168.808 63.0535 169.002C63.5615 169.007 63.9255 169.002 63.9951 168.789C64.134 168.885 64.27 168.982 64.4064 169.08C64.6627 169.064 64.9179 169.051 65.1721 169.042C65.1053 169.253 65.125 169.243 65.5304 169.171C65.6902 169.26 65.8471 169.351 66.0018 169.444C66.0943 169.369 66.1874 169.296 66.2813 169.222C66.3983 169.384 66.5114 169.547 66.6202 169.711C67.2131 169.725 66.9436 169.391 67.1415 169.217ZM70.0271 170.204C69.9526 170.146 68.3749 169.683 67.6229 169.601C67.2216 169.561 67.072 169.634 67.5172 169.927C67.5499 169.949 67.5857 169.971 67.6246 169.995C68.0842 170.129 68.542 170.263 68.9999 170.398C68.8498 169.585 69.8858 170.608 69.9805 170.657C70.4447 170.885 71.1162 170.927 71.465 171.054C71.7634 171.163 71.903 171.348 72.1158 171.417C72.8427 171.651 73.9826 172.043 74.2384 171.815C73.6804 171.612 73.1114 171.412 72.5229 171.219C71.9038 171.016 71.4464 170.561 70.1589 170.544C69.8837 170.409 70.058 170.227 70.0271 170.204ZM112.827 147.985C113.108 148.112 113.5 146.588 113.382 146.547C113.317 146.524 113.174 147.011 113.127 147.074C113.127 147.074 113.127 147.075 113.126 147.075C113.107 147.101 113.04 146.921 112.941 147.139C112.906 147.418 112.866 147.706 112.827 147.985ZM46.2035 151.934C46.4404 151.819 48.7105 147.614 48.7228 147.461C48.7222 147.417 48.6314 147.425 48.6017 147.391C48.2525 148.475 47.232 149.718 46.7047 150.644C46.5594 150.899 46.7068 150.88 46.7008 150.896C46.7004 150.896 46.7001 150.897 46.6998 150.898C46.6206 151.042 46.0002 151.571 46.2035 151.934ZM61.8859 168.559C62.0824 168.627 62.2777 168.695 62.4714 168.764C62.5322 168.676 62.5932 168.589 62.6544 168.502C62.654 168.502 62.6535 168.502 62.6531 168.502C62.398 168.519 62.1423 168.539 61.8859 168.559ZM54.9098 167.641C54.9514 167.712 54.9932 167.783 55.0352 167.854C55.5469 167.921 56.0552 167.98 56.5659 168.035C56.5112 168.067 56.4564 168.099 56.4016 168.132C57.1659 168.3 57.5056 168.094 57.9136 168.16C57.9131 168.16 57.9126 168.16 57.9122 168.16C57.9561 168.167 57.9989 168.308 58.1632 168.325C58.5399 168.365 59.6149 168.499 59.7552 168.372C60.055 168.099 57.8716 168.073 57.4664 168.025C57.2839 168.004 57.0729 167.866 56.9618 167.854C56.84 167.84 56.6594 167.988 56.3625 167.955C56.2738 167.947 55.3287 167.664 54.9098 167.641ZM46.2346 165.08C46.2806 165.297 46.6459 165.369 46.7377 165.454C46.7605 165.475 46.4952 165.454 46.7164 165.638C46.8296 165.609 46.9417 165.578 47.0527 165.545C46.7743 165.402 46.5012 165.247 46.2346 165.08ZM113.432 145.438C113.391 145.475 113.177 146.278 113.184 146.324C113.307 146.883 113.75 145.203 113.432 145.438ZM107.637 129.441C107.979 129.845 103.514 129.058 103.068 129.1C103.099 128.853 104.169 129.159 103.619 128.789C104.147 128.999 105.647 129.012 105.988 129.101C106.198 129.153 106.232 129.371 106.263 129.38C106.384 129.413 107.521 129.286 107.637 129.441ZM99.3278 128.862C99.7578 128.906 100.188 128.954 100.62 129.005C100.11 129.028 99.6031 129.056 99.097 129.088C99.1743 129.013 99.2516 128.937 99.3278 128.862ZM98.7863 128.98C98.8066 129.216 97.3398 129.063 96.9596 129.134C97.3789 128.713 98.1134 129.077 98.7863 128.98ZM114.021 139.934C113.749 140.565 114.414 140.98 114.246 140.119C114.24 140.092 114.034 139.907 114.021 139.934ZM67.2137 168.17C67.1064 168.122 65.7048 167.558 65.594 167.667C65.2587 167.981 66.2333 168.021 66.5167 168.241C66.9666 168.592 66.1836 168.57 67.4323 168.774C67.3617 168.831 67.2915 168.888 67.2219 168.946C67.8189 169.144 67.8444 168.756 67.9371 168.629C67.9512 168.61 67.9668 168.597 67.9862 168.594C68.0307 168.587 68.4488 168.768 68.5363 168.762C69.2097 168.711 68.615 168.511 68.0258 168.355C67.6406 168.251 67.255 168.183 67.2137 168.17ZM109.276 155.867C108.805 157.166 109.219 156.647 109.007 158.017C109.15 158.082 109.361 156.07 109.276 155.867ZM79.5177 172.742C78.1983 172.3 77.198 171.699 75.8807 171.532C75.8134 171.967 79.8118 172.967 79.5177 172.742ZM55.6281 139.018C51.9336 142.972 48.9967 148.506 46.336 153.566C46.0467 154.116 45.8624 154.089 45.7741 154.298C45.7182 154.431 45.845 154.475 45.7718 154.637C45.7691 154.643 45.7662 154.649 45.763 154.655C44.8377 156.657 42.8245 158.615 43.493 160.217C45.2098 164.645 49.9663 166.311 54.46 166.852C54.873 166.922 56.9148 167.428 57.3987 166.999C57.7612 166.68 56.2543 166.826 56.0083 166.795C55.8236 166.774 55.8324 166.61 55.71 166.597C55.5801 166.583 55.6764 166.706 55.5245 166.691C54.8808 166.631 54.1934 166.501 53.6224 166.423C49.3492 165.939 45.2481 164.047 43.7849 160.096C43.4178 159.369 44.0356 158.285 44.7406 157.157C45.1069 156.567 45.1462 156.754 45.1645 156.725C45.1644 156.725 45.1644 156.724 45.1644 156.724C45.5226 156.147 45.8848 155.527 46.2136 154.867C47.6361 152.004 49.1478 148.891 50.8828 146.15C52.381 143.803 53.9349 141.498 55.5732 139.27C55.5915 139.186 55.6098 139.102 55.6281 139.018ZM69.9301 169.522C69.7525 168.942 69.5235 169.391 68.3947 168.811C68.2717 168.86 68.1485 168.909 68.0253 168.959C68.6616 169.145 69.2956 169.332 69.9321 169.523C69.9314 169.522 69.9307 169.522 69.9301 169.522ZM61.8178 167.554C61.6683 166.855 58.8109 167.105 57.5792 166.881C57.3214 167.199 59.1554 167.19 59.586 167.259C59.8003 167.293 60.9266 167.727 61.8231 167.623C61.8214 167.6 61.8196 167.577 61.8178 167.554ZM111.663 131.457C111.838 131.536 112.009 131.618 112.178 131.704C111.823 131.386 111.436 131.082 111.033 130.789C111.707 131.194 112.353 131.631 112.899 132.118C112.706 132.144 112.516 132.176 112.328 132.213C112.128 131.958 111.903 131.705 111.663 131.457ZM113.557 132.814C112.666 132.011 113.867 132.618 113.888 132.977C113.905 133.169 113.645 132.895 113.557 132.814ZM113.769 135.553C113.657 135.128 113.654 134.445 113.777 134.132C113.839 134.06 113.948 134.008 114.125 134.11C114.115 134.127 114.105 134.142 114.096 134.158C113.855 134.798 113.986 135.272 113.753 136.235C113.676 136.08 113.6 135.915 113.522 135.761C113.522 135.76 113.522 135.759 113.523 135.759C113.604 135.693 113.687 135.622 113.769 135.553ZM112.975 132.652C112.625 131.912 114.065 133.535 113.462 133.159C113.456 133.142 113.006 132.678 112.975 132.652ZM52.8328 144.236C52.7543 144.06 52.3873 144.661 52.2547 144.859C51.6806 145.709 51.0661 146.878 50.5143 147.788C50.6 147.744 50.6856 147.701 50.7711 147.658C51.445 146.507 52.1314 145.366 52.8328 144.236ZM48.8662 150.692C48.5105 151.333 48.1597 151.974 47.8093 152.624C47.776 152.686 47.7461 153.03 47.8875 152.837C48.2109 152.117 48.5355 151.405 48.8662 150.692ZM74.6691 170.12C74.1599 169.847 75.8635 169.961 75.6297 170.399C75.3096 170.305 74.9901 170.212 74.6691 170.12ZM79.7292 171.771C79.3763 171.684 79.0261 171.6 78.6731 171.516C78.6926 171.463 78.7121 171.41 78.7316 171.357C79.0655 171.494 79.3962 171.631 79.7292 171.771ZM54.4625 141.87C54.0991 142.075 53.646 142.837 53.3462 143.309C53.6912 143.069 54.1086 142.262 54.4625 141.87ZM66.4934 167.28C66.513 167.395 64.1848 166.938 65.0324 166.856C65.5191 166.984 66.0107 167.125 66.4934 167.28ZM61.7927 166.38C62.288 166.398 62.669 166.486 62.5444 166.68C62.2843 166.643 62.0214 166.608 61.7633 166.574C61.7731 166.51 61.7829 166.445 61.7927 166.38ZM113.081 137.96C112.988 138.747 112.878 139.534 112.753 140.318C112.703 140.279 112.653 140.24 112.603 140.201C112.722 139.447 112.826 138.691 112.915 137.934C112.97 137.943 113.026 137.952 113.081 137.96ZM55.1339 141.766C55.4042 141.286 55.679 140.806 55.9532 140.335C55.617 140.765 55.2796 141.204 54.946 141.645C55.0087 141.686 55.0713 141.727 55.134 141.768C55.134 141.767 55.134 141.767 55.1339 141.766ZM109.712 132.019C110.062 132.114 110.292 132.193 110.425 132.254L109.768 132.043C109.942 132.201 109.877 132.235 109.695 132.192L110.397 132.418C109.941 132.433 108.751 132.258 108.41 131.986C108.409 131.986 108.409 131.986 108.408 131.986C108.357 131.945 108.496 131.797 108.413 131.719C108.648 131.826 108.876 131.933 109.107 132.042C109.34 131.982 109.577 131.924 109.81 131.867C109.876 131.914 109.943 131.962 110.01 132.01C109.91 132.012 109.811 132.015 109.712 132.019ZM100.055 131.422C97.8673 131.402 100.108 130.966 101.188 131.317C101.178 131.391 100.255 131.424 100.055 131.422ZM105.756 131.591C106.104 131.585 106.444 131.581 106.791 131.58C106.83 131.632 106.869 131.683 106.907 131.735C106.639 131.753 106.373 131.773 106.11 131.795C105.992 131.726 105.874 131.659 105.756 131.591ZM111.964 134.348C111.867 134.87 112.3 135.589 112.338 134.017C112.334 134.028 112.33 134.04 112.326 134.054C112.27 134.053 112.213 134.052 112.157 134.052C112.161 134.041 112.175 134.021 112.189 134.005C112.199 134.073 112.209 134.137 112.206 134.143C112.189 134.174 112.005 134.119 111.964 134.348ZM96.052 132.991C95.9918 133.016 95.9817 133.609 95.3075 133.026C95.1104 133.073 94.915 133.12 94.7211 133.167C94.6637 133.039 94.6047 132.911 94.5464 132.783C95.3167 132.845 95.3858 132.578 95.4399 132.57C95.6914 132.534 95.5106 132.678 95.674 132.673C96.0977 132.657 97.0431 132.531 96.628 132.935C96.478 133.08 96.1123 132.967 96.052 132.991ZM97.5336 133.277C97.4415 133.23 97.729 133.048 97.6593 133.001C97.5991 132.958 96.6865 132.811 96.9218 132.509C97.0716 132.517 97.2242 132.524 97.3715 132.532C97.4242 132.611 97.4768 132.69 97.5294 132.769C97.6706 132.691 97.8156 132.613 97.9566 132.535C98.2023 132.728 98.7205 132.975 98.1149 133.149C98.3368 133.127 98.5641 133.106 98.7841 133.086C98.8979 132.99 99.0126 132.893 99.1283 132.797C99.0686 132.943 99.0093 133.088 98.9505 133.234C98.4822 133.244 98.0105 133.258 97.5336 133.277ZM90.3083 133.562C90.3358 133.486 90.3631 133.41 90.3905 133.334C89.4983 133.515 87.987 133.57 88.8333 133.096C90.1135 133.043 91.3164 132.939 92.4891 132.837C92.5699 132.889 92.6509 132.941 92.7323 132.993C91.8447 132.824 92.1672 133.732 91.3735 133.506C91.2379 133.468 91.6127 133.128 90.785 133.372C90.818 133.446 90.851 133.52 90.8841 133.594C90.6949 133.584 90.5017 133.573 90.3083 133.562ZM82.747 133.484C84.2217 133.593 82.5971 133.865 82.325 133.638C82.3254 133.638 82.3259 133.638 82.3264 133.638C81.5805 133.016 83.185 133.317 83.2829 133.313C83.4129 133.308 83.7164 132.863 84.4237 133.512C83.8649 133.503 83.3059 133.494 82.747 133.484ZM87.5615 133.598C87.4377 133.613 87.5063 133.5 87.4528 133.502C87.4523 133.502 87.4518 133.502 87.4514 133.502C86.662 133.525 84.7844 133.625 84.5812 133.261C85.1655 133.231 87.7801 133.153 87.938 133.401C87.8125 133.467 87.6871 133.533 87.5615 133.598ZM93.3297 133.138C93.8272 133.347 92.7406 133.439 92.4439 133.345C92.387 133.325 92.8182 132.922 93.3297 133.138ZM108.34 145.662C108.187 146.641 108.702 145.449 108.783 145.942C108.82 145.757 108.857 145.567 108.892 145.381C108.708 145.475 108.524 145.569 108.34 145.662ZM90.6514 172.813C90.4284 172.671 90.4787 172.849 90.4575 172.84C90.3051 172.759 90.2088 172.588 90.1443 172.569C88.9486 172.227 89.6287 172.69 89.6275 172.718C89.5911 172.85 89.2358 172.85 89.5646 173.183C89.826 173.259 90.0876 173.336 90.349 173.415C90.4345 173.542 90.5196 173.669 90.6043 173.796C91.1521 173.897 90.5507 173.539 90.5754 173.314C90.5854 173.226 91.0818 173.366 90.6514 172.813ZM107.376 147.191C107.548 147.417 107.701 147.883 108.05 147.598C108.05 147.597 108.05 147.597 108.051 147.596C108.115 147.543 108.231 147.275 108.317 147.209C108.218 146.505 107.834 146.645 107.376 147.191ZM94.4873 174.388C94.443 174.429 94.4225 174.485 94.4557 174.546C94.4335 174.686 94.4109 174.825 94.3877 174.964C94.3564 174.921 94.34 174.878 94.3354 174.837C94.3126 174.897 94.288 174.957 94.2613 175.016C94.2331 175.177 94.2385 175.346 94.2813 175.517C94.375 175.476 94.4798 175.429 94.6013 175.374C94.5464 175.299 94.5021 175.222 94.4679 175.145C94.7063 175.073 94.6485 175.418 94.9744 175.525C95.0743 175.384 95.1745 175.238 95.2731 175.087C95.4722 175.186 95.7 175.271 95.9498 175.34C96.2999 175.18 96.3031 175.07 96.0159 174.999C96.1446 174.784 96.4263 174.978 96.638 174.83C96.6553 174.818 96.566 174.678 96.5822 174.671C97.7533 174.12 97.8992 174.476 98.1098 174.411C98.2646 174.358 98.7533 173.809 98.7204 173.715C98.6741 173.587 97.1836 173.748 99.165 172.751C97.9479 172.979 97.0428 173.757 97.9639 173.926C97.6116 174.045 96.3656 174.666 96.3011 174.653C96.1821 174.666 96.16 174.465 96.0252 174.5C95.9607 174.514 95.8143 175.048 95.2149 174.755C95.1644 174.84 95.1151 174.923 95.064 175.005C94.9989 174.952 94.9397 174.897 94.8852 174.84C94.9644 174.612 95.0381 174.381 95.1071 174.146C94.6908 174.456 94.5558 173.982 94.4897 174.355C94.4601 174.305 94.5034 174.269 94.5362 174.079C94.544 174.081 94.5563 174.084 94.5711 174.089C94.548 174.19 94.5202 174.29 94.4873 174.388ZM106.694 149.997C106.318 150.344 106.688 150.679 106.741 150.622C107.035 150.299 106.89 149.813 106.694 149.997ZM91.4039 173.48C91.8727 173.86 92.3373 174.245 92.7967 174.634C92.8682 174.503 92.9397 174.372 93.0111 174.24C92.4775 173.981 91.9414 173.728 91.4039 173.48ZM108.06 145.427C108.18 145.414 108.301 145.4 108.422 145.387C108.19 144.734 108.904 144.353 108.86 144.05C108.85 143.984 108.627 144.051 108.556 144.151C108.514 144.217 108.056 145.321 108.06 145.427ZM104.266 133.954C104.482 133.894 104.697 133.834 104.915 133.776C104.894 133.901 104.872 134.025 104.851 134.15C104.744 134.165 104.639 134.181 104.534 134.196C104.445 134.115 104.357 134.035 104.266 133.954ZM106.683 133.968C107.053 134.019 107.434 134.074 107.803 134.132C106.36 134.071 107.523 134.268 106.643 134.332C106.656 134.211 106.669 134.089 106.683 133.968ZM109.008 134.422C108.938 134.471 108.869 134.52 108.8 134.57C108.73 134.534 108.658 134.499 108.585 134.463L109.978 134.91C109.696 134.863 109.416 134.818 109.139 134.775C109.331 135.069 109.522 135.364 109.712 135.66C109.757 135.667 109.802 135.675 109.847 135.683L108.241 135.167C108.311 135.202 108.38 135.236 108.446 135.27C108.632 134.987 108.819 134.704 109.008 134.422ZM80.2875 167.682C80.0493 167.586 79.1374 167.489 79.1442 167.581C79.454 167.806 79.7616 168.032 80.0698 168.26C80.1245 168.12 80.1793 167.981 80.234 167.841C80.2565 167.93 80.2788 168.018 80.301 168.106C80.5174 168.129 80.7325 168.151 80.9497 168.175C81.0016 168.335 81.0532 168.496 81.1045 168.656C81.2577 168.555 81.4111 168.455 81.5648 168.354C80.7127 167.738 80.6491 168 80.4532 167.922C80.3536 167.882 80.3231 167.772 80.3041 167.715C80.2986 167.704 80.2931 167.693 80.2875 167.682ZM92.2089 172.825C91.1197 172.214 90.3096 172.253 89.648 171.563C89.8596 172.427 93.5013 173.484 94.3538 174.665C94.3638 174.663 94.3738 174.661 94.3838 174.66C94.4358 174.567 94.4802 174.47 94.5178 174.371C94.5181 174.392 94.5217 174.402 94.5284 174.404C94.0832 174.146 93.8284 173.826 93.5924 173.665C93.3612 173.509 93.3302 173.627 93.3124 173.615C93.3116 173.614 93.3107 173.614 93.3098 173.613C92.762 173.261 92.6374 173.067 92.2089 172.825ZM107.753 144.514C107.504 144.741 107.381 145.217 107.627 145.298C107.779 145.053 107.929 144.81 108.077 144.561C107.998 144.598 107.795 144.476 107.753 144.514ZM108.985 135.229C109.103 135.387 109.456 135.509 109.432 135.234C109.431 135.186 109.003 135.128 109.407 134.89C109.049 134.7 108.92 135.14 108.985 135.229ZM102.807 170.949C102.828 170.898 102.851 170.839 102.875 170.772C102.787 170.711 102.699 170.652 102.611 170.594C102.678 170.717 102.744 170.834 102.807 170.949ZM108.181 142.15C108.737 142.026 108.345 141.502 108.855 141.132C108.894 140.965 108.933 140.795 108.971 140.626C108.971 140.625 108.971 140.625 108.971 140.624C108.835 140.592 108.698 140.559 108.562 140.527C108.443 141.071 108.316 141.612 108.181 142.15ZM95.2125 174.326C95.2846 174.379 95.3621 174.429 95.4446 174.477C95.5482 174.376 95.6568 174.27 95.7663 174.16C95.6808 174.128 95.5983 174.094 95.5195 174.058C95.4128 174.152 95.3091 174.242 95.2125 174.326ZM108.746 139.185C108.577 139.763 108.973 140.07 109.113 139.31C109.17 138.985 108.92 138.576 108.746 139.185ZM67.5435 163.572C67.8132 163.675 68.0824 163.783 68.3516 163.895C68.4727 163.831 68.595 163.768 68.7185 163.706C68.3151 163.648 67.9309 163.607 67.5435 163.572ZM107.893 135.051C107.93 134.961 107.966 134.871 108.003 134.782C108.186 134.825 108.367 134.869 108.548 134.914C108.488 135 108.429 135.085 108.371 135.171C108.214 135.131 108.052 135.09 107.893 135.051ZM69.4186 164.154C69.5888 164.228 69.7586 164.302 69.9279 164.376C70.0597 164.371 70.1904 164.365 70.3227 164.361C70.1725 164.264 70.0237 164.168 69.8735 164.072C69.722 164.099 69.5704 164.127 69.4186 164.154ZM109.467 134.265C109.431 134.163 109.429 133.972 109.465 133.788C109.499 134.107 109.677 134.481 109.795 133.857C109.798 133.843 109.8 133.828 109.802 133.815C109.816 134.539 109.499 134.33 109.467 134.265ZM109.847 135.824C109.229 135.162 110.674 135.55 110.122 135.905C110.119 135.761 109.838 135.785 109.847 135.824ZM106.368 135.604C106.346 135.601 106.345 135.443 106.169 135.419C105.542 135.332 104.703 135.201 104.252 135.161C103.156 135.034 99.7727 135.251 99.3614 134.82C99.2775 134.725 99.4676 134.439 99.4337 134.425C99.3362 134.384 98.7543 134.528 98.8599 134.318C99.4331 134.312 99.9944 134.313 100.561 134.32C100.42 134.467 100.281 134.613 100.143 134.76C101.541 134.694 101.08 134.703 101.488 134.388C101.719 134.518 101.956 134.65 102.184 134.783C102.699 134.676 103.217 134.575 103.736 134.481C103.615 134.567 103.495 134.654 103.373 134.741C104.13 134.958 103.923 134.833 104.359 134.635C104.354 134.728 104.348 134.822 104.342 134.915C105.096 134.742 105.219 135.037 105.378 135.054C105.702 135.09 106.253 134.022 107.382 135.267C107.975 134.808 107.823 135.875 108.207 135.375C109.007 136.09 107.359 135.634 106.559 135.533C106.558 135.533 106.558 135.533 106.557 135.533C106.498 135.525 106.582 135.635 106.368 135.604ZM109.128 135.459C108.612 135.711 109.688 136.426 109.72 135.619C109.682 135.567 109.639 135.512 109.593 135.457C109.445 135.458 109.289 135.458 109.128 135.458C109.128 135.459 109.128 135.459 109.128 135.459ZM105.691 148.71C105.155 150.61 105.828 149.676 105.818 148.955C105.816 148.811 105.772 148.716 105.691 148.71ZM90.7923 171.681C90.7355 171.717 90.6789 171.754 90.6222 171.791C91.3524 172.09 92.597 172.996 92.7617 172.641C92.1079 172.312 91.4514 171.992 90.7923 171.681ZM94.6611 173.491C94.68 173.468 94.8395 173.461 94.7722 173.595C94.6787 173.671 94.6082 173.762 94.5714 173.861C94.5765 173.795 94.581 173.73 94.5859 173.665C94.5894 173.643 94.6509 173.495 94.6611 173.491Z" fill="#A16363" fill-opacity="0.38"/>
</svg>
