<svg width="58" height="58" viewBox="0 0 58 58" fill="none" xmlns="http://www.w3.org/2000/svg">
<rect width="58" height="58" rx="6" fill="#8763A1" fill-opacity="0.59"/>
<ellipse cx="29" cy="29" rx="22" ry="21" fill="#5A4644" fill-opacity="0.43"/>
<path d="M38.388 19.405C38.33 19.2605 38.2185 19.1439 38.0768 19.0795C37.935 19.0152 37.7739 19.0079 37.6269 19.0593C37.4799 19.1107 37.3584 19.2168 37.2877 19.3555C37.2169 19.4942 37.2024 19.6548 37.247 19.804C38.176 22.474 36.332 24.468 34.926 25.536L34.358 24.722C34.167 24.449 33.74 24.222 33.408 24.218L30.22 24.232C29.8306 24.2436 29.4515 24.3604 29.123 24.57L19.729 31.157C19.5105 31.3107 19.3619 31.5448 19.3156 31.8079C19.2693 32.0711 19.3291 32.3419 19.482 32.561L23.751 38.669C24.071 39.124 24.582 39.069 25.038 38.751L34.432 32.163C34.702 31.972 35.014 31.56 35.124 31.245L36.122 28.1C36.232 27.786 36.165 27.307 35.974 27.034L35.628 26.538C37.516 25.091 39.476 22.534 38.388 19.405ZM34.017 28.763C33.6674 29.0071 33.2351 29.1025 32.8151 29.0283C32.3952 28.954 32.0218 28.7162 31.777 28.367C31.532 28.0166 31.4359 27.5833 31.51 27.1623C31.584 26.7412 31.8221 26.3667 32.172 26.121C32.4465 25.9292 32.774 25.8278 33.1088 25.8308C33.4436 25.8339 33.7691 25.9412 34.04 26.138C33.768 26.302 33.581 26.398 33.546 26.413C33.4221 26.4721 33.3219 26.5715 33.2618 26.695C33.2018 26.8185 33.1855 26.9588 33.2156 27.0928C33.2457 27.2268 33.3204 27.3466 33.4275 27.4325C33.5346 27.5185 33.6677 27.5656 33.805 27.566C33.8917 27.566 33.9774 27.5463 34.062 27.507C34.2567 27.4156 34.463 27.3056 34.681 27.177C34.7304 27.477 34.6942 27.7849 34.5768 28.0653C34.4594 28.3458 34.2654 28.5876 34.017 28.763Z" fill="#230F40"/>
</svg>
