<svg width="24" height="24" viewBox="0 0 24 24" fill="none" xmlns="http://www.w3.org/2000/svg">
<path fill-rule="evenodd" clip-rule="evenodd" d="M12 18.4998L7.32799 20.9558C7.16284 21.0426 6.9767 21.0815 6.7906 21.068C6.6045 21.0546 6.42588 20.9894 6.27492 20.8797C6.12396 20.7701 6.00669 20.6204 5.93637 20.4475C5.86605 20.2747 5.84548 20.0857 5.87699 19.9018L6.76899 14.6998L2.98899 11.0148C2.85527 10.8845 2.76069 10.7194 2.71596 10.5381C2.67122 10.3568 2.67813 10.1667 2.73588 9.98914C2.79364 9.8116 2.89995 9.65378 3.04276 9.53353C3.18558 9.41329 3.35921 9.33543 3.54399 9.30876L8.76699 8.54976L11.103 3.81676C11.1855 3.64929 11.3133 3.50827 11.4718 3.40966C11.6303 3.31105 11.8133 3.25879 12 3.25879C12.1867 3.25879 12.3697 3.31105 12.5282 3.40966C12.6867 3.50827 12.8145 3.64929 12.897 3.81676L15.233 8.54976L20.456 9.30976C20.6406 9.33657 20.814 9.41446 20.9566 9.53464C21.0992 9.65482 21.2054 9.81249 21.2631 9.98985C21.3209 10.1672 21.3279 10.3572 21.2833 10.5383C21.2387 10.7194 21.1444 10.8844 21.011 11.0148L17.23 14.6998L18.122 19.9018C18.1534 20.0855 18.1327 20.2744 18.0625 20.4471C17.9922 20.6197 17.875 20.7693 17.7242 20.8789C17.5734 20.9886 17.395 21.0538 17.2091 21.0674C17.0231 21.081 16.8371 21.0423 16.672 20.9558L12 18.4998Z" fill="#A16363" fill-opacity="0.82"/>
</svg>
