<svg width="24" height="24" viewBox="0 0 24 24" fill="none" xmlns="http://www.w3.org/2000/svg">
<path d="M10.144 6.62803C10.93 4.66703 11.324 3.68604 12 3.68604C12.676 3.68604 13.07 4.66603 13.856 6.62803L13.893 6.71803C14.337 7.82703 14.559 8.38104 15.013 8.71804C15.465 9.05404 16.06 9.10804 17.249 9.21404L17.463 9.23304C19.409 9.40704 20.383 9.49404 20.59 10.113C20.799 10.733 20.076 11.39 18.63 12.704L18.149 13.144C17.417 13.809 17.051 14.142 16.881 14.578C16.8489 14.6595 16.8222 14.743 16.801 14.828C16.69 15.282 16.797 15.765 17.011 16.73L17.078 17.03C17.471 18.805 17.668 19.692 17.325 20.075C17.1964 20.2179 17.0294 20.3206 16.844 20.371C16.348 20.507 15.644 19.933 14.234 18.785C13.309 18.031 12.846 17.654 12.315 17.569C12.1063 17.5358 11.8937 17.5358 11.685 17.569C11.153 17.654 10.691 18.031 9.76499 18.785C8.35699 19.933 7.65199 20.507 7.15599 20.371C6.97091 20.3205 6.80428 20.2177 6.67599 20.075C6.33199 19.692 6.52899 18.805 6.92199 17.031L6.98899 16.73C7.20299 15.764 7.30999 15.282 7.19899 14.827C7.17783 14.742 7.1511 14.6585 7.11899 14.577C6.94899 14.142 6.58299 13.809 5.85099 13.143L5.36899 12.704C3.92399 11.39 3.20099 10.732 3.40899 10.114C3.61799 9.49404 4.59099 9.40704 6.53699 9.23304L6.75099 9.21304C7.94099 9.10704 8.53499 9.05404 8.98799 8.71704C9.44099 8.38004 9.66299 7.82703 10.108 6.71903L10.144 6.62803Z" fill="#A16363" fill-opacity="0.25" stroke="#A16363"/>
</svg>
