<svg width="58" height="58" viewBox="0 0 58 58" fill="none" xmlns="http://www.w3.org/2000/svg">
<rect width="58" height="58" rx="6" fill="#8763A1" fill-opacity="0.59"/>
<ellipse cx="29" cy="29" rx="22" ry="21" fill="#5A4644" fill-opacity="0.43"/>
<path d="M19.7789 30.6L19.0211 29.0842H24.3263L23.72 27.5684H18.7684L18.0105 26.0526H25.8926L25.2863 24.5368H17.8691L17 23.0211H20.7895C20.7895 22.485 21.0024 21.971 21.3814 21.592C21.7604 21.2129 22.2745 21 22.8105 21H34.9368V25.0421H37.9684L41 29.0842V34.1368H38.9789C38.9789 34.9409 38.6595 35.712 38.091 36.2805C37.5225 36.849 36.7514 37.1684 35.9474 37.1684C35.1433 37.1684 34.3722 36.849 33.8037 36.2805C33.2352 35.712 32.9158 34.9409 32.9158 34.1368H28.8737C28.8737 34.9409 28.5543 35.712 27.9858 36.2805C27.4172 36.849 26.6461 37.1684 25.8421 37.1684C25.0381 37.1684 24.267 36.849 23.6985 36.2805C23.1299 35.712 22.8105 34.9409 22.8105 34.1368H20.7895V30.6H19.7789ZM35.9474 35.6526C36.3494 35.6526 36.7349 35.4929 37.0192 35.2087C37.3035 34.9244 37.4632 34.5389 37.4632 34.1368C37.4632 33.7348 37.3035 33.3493 37.0192 33.065C36.7349 32.7808 36.3494 32.6211 35.9474 32.6211C35.5454 32.6211 35.1598 32.7808 34.8755 33.065C34.5913 33.3493 34.4316 33.7348 34.4316 34.1368C34.4316 34.5389 34.5913 34.9244 34.8755 35.2087C35.1598 35.4929 35.5454 35.6526 35.9474 35.6526ZM37.4632 26.5579H34.9368V29.0842H39.4438L37.4632 26.5579ZM25.8421 35.6526C26.2441 35.6526 26.6297 35.4929 26.9139 35.2087C27.1982 34.9244 27.3579 34.5389 27.3579 34.1368C27.3579 33.7348 27.1982 33.3493 26.9139 33.065C26.6297 32.7808 26.2441 32.6211 25.8421 32.6211C25.4401 32.6211 25.0545 32.7808 24.7703 33.065C24.486 33.3493 24.3263 33.7348 24.3263 34.1368C24.3263 34.5389 24.486 34.9244 24.7703 35.2087C25.0545 35.4929 25.4401 35.6526 25.8421 35.6526Z" fill="#230F40"/>
</svg>
